<svg viewBox="0 0 104.881889764 104.881889764" width="104.881889764pt" height="104.881889764pt" xmlns="http://www.w3.org/2000/svg" xmlns:xlink="http://www.w3.org/1999/xlink" xmlns:h5="http://www.w3.org/1999/xhtml"><path fill="#f9f6f0" fill-rule="nonzero" d="M 0 0v 104.881889764h 104.881889764v -104.881889764Z "/><g transform="translate(9.921259843 24.094488189)"><path fill="#f9f6f0" fill-rule="nonzero" d="M 0 0v 56.692913386h 85.039370079v -56.692913386Z "/><path fill="none" stroke="#3d2645" stroke-width="7" stroke-linecap="butt" stroke-linejoin="miter" stroke-miterlimit="4" transform="translate(14.173228346 14.173228346)" d="M 0 0m 22.677165354 42.519685039h -22.677165354v -42.519685039"/><path fill="none" stroke="#3d2645" stroke-width="7" stroke-linecap="square" stroke-linejoin="miter" stroke-miterlimit="4" transform="translate(14.173228346)" d="M 0 0m 0 14.173228346c 0 -7.827657872 6.345570475 -14.173228346 14.173228346 -14.173228346c 7.827657872 0 14.173228346 6.345570475 14.173228346 14.173228346"/><path fill="none" stroke="#3d2645" stroke-width="7" stroke-linecap="butt" stroke-linejoin="miter" stroke-miterlimit="4" transform="translate(42.519685039 14.173228346)" d="M 0 0v 28.346456693"/><path fill="none" stroke="#3d2645" stroke-width="7" stroke-linecap="square" stroke-linejoin="miter" stroke-miterlimit="4" transform="translate(42.519685039 42.519685039)" d="M 0 0c 0 7.827657872 6.345570475 14.173228346 14.173228346 14.173228346c 7.827657872 0 14.173228346 -6.345570475 14.173228346 -14.173228346"/><path fill="none" stroke="#3d2645" stroke-width="7" stroke-linecap="butt" stroke-linejoin="miter" stroke-miterlimit="4" transform="translate(48.188976378)" d="M 0 0m 22.677165354 42.519685039v -42.519685039h -22.677165354"/><path fill="none" stroke="#f9f6f0" stroke-width="14" stroke-linecap="butt" stroke-linejoin="miter" stroke-miterlimit="4" transform="translate(0 14.173228346)" d="M 0 0c 0 35.433070866 85.039370079 -7.086614173 85.039370079 28.346456693"/><path fill="none" stroke="#3d2645" stroke-width="7" stroke-linecap="square" stroke-linejoin="miter" stroke-miterlimit="4" transform="translate(0 14.173228346)" d="M 0 0c 0 35.433070866 85.039370079 -7.086614173 85.039370079 28.346456693"/></g></svg>