<svg viewBox="0 0 367.329715912 199.677947394" width="367.329715912pt" height="199.677947394pt" xmlns="http://www.w3.org/2000/svg" xmlns:xlink="http://www.w3.org/1999/xlink" xmlns:h5="http://www.w3.org/1999/xhtml"><g transform="translate(5.669291339 5.669291339)"><path fill="none" stroke="#fbf6fc" stroke-width="0.55" stroke-linecap="round" stroke-linejoin="miter" stroke-miterlimit="4" transform="translate(34.483719314 35.672505002)" d="M 0 0m 0.031422263 0c 0.272047032 0.067529953 0.561374465 0.130138959 0.816141097 0.20258986c 0.254766631 0.072450902 0.506274813 0.143808716 0.712458691 0.232115551c 0.206183877 0.088306835 0.390813037 0.18464104 0.524644574 0.297725461c 0.133831537 0.113084421 0.229211026 0.236569043 0.278344649 0.380781067c 0.049133623 0.144212024 0.05251671 0.310605297 0.016457088 0.484491078c -0.036059623 0.173885781 -0.123826013 0.361853348 -0.232814825 0.558823607c -0.108988812 0.196970258 -0.263761058 0.409541948 -0.421118047 0.622997944c -0.157356989 0.213455996 -0.348683717 0.438488717 -0.523023888 0.65773803c -0.174340171 0.219249313 -0.365664652 0.444288629 -0.523017136 0.657757847c -0.157352484 0.213469219 -0.312117982 0.426060714 -0.421097768 0.623057465c -0.108979786 0.196996751 -0.196194961 0.38658219 -0.232780948 0.558923039c -0.036585987 0.172340849 -0.035543013 0.331865659 0.013265024 0.475122056c 0.048808037 0.143256397 0.145380921 0.270243751 0.279583197 0.384416329c 0.134202276 0.114172578 0.31903374 0.211100566 0.525630461 0.300619139c 0.206596721 0.089518573 0.45897937 0.163443034 0.713949867 0.2364923c 0.254970497 0.073049267 0.543913421 0.134529701 0.815873112 0.2018033c 0.271959691 0.067273599 0.560906586 0.128765686 0.815885035 0.201838295c 0.254978449 0.073072609 0.507373017 0.147032053 0.71398566 0.236597358c 0.206612643 0.089565305 0.391480713 0.186600735 0.525690198 0.300794473c 0.134209486 0.114193738 0.230840934 0.241352983 0.279566716 0.384367954c 0.048725782 0.143014972 0.049523559 0.301820104 0.012787977 0.473721877c -0.036735582 0.171901773 -0.124090786 0.361076214 -0.233201472 0.55768876c -0.109110686 0.196612546 -0.263997668 0.408847476 -0.421462645 0.621986517c -0.157464977 0.213139042 -0.348817887 0.438094916 -0.523327216 0.656847732c -0.174509329 0.218752816 -0.366262965 0.442532519 -0.523728759 0.655669163c -0.157465794 0.213136644 -0.312140174 0.42599558 -0.421066002 0.623150702c -0.108925828 0.197155122 -0.19596029 0.387270972 -0.232488969 0.559780027c -0.036528679 0.172509055 -0.0353346 0.332477371 0.013316895 0.475274303c 0.048651495 0.142796932 0.144626162 0.268028458 0.278592075 0.381507288c 0.133965914 0.11347883 0.318761637 0.210301916 0.525203408 0.299365694c 0.206441771 0.089063778 0.458657025 0.162496918 0.713447218 0.235016976c 0.254790193 0.072520058 0.543540219 0.133434315 0.815293941 0.200103374c 0.271753722 0.066669059 0.560481898 0.127519184 0.815228392 0.199910981c 0.254746494 0.072391797 0.506896198 0.145632542 0.713250572 0.234439801c 0.206354374 0.088807259 0.390193545 0.182822772 0.52487567 0.298403752c 0.134682125 0.11558098 0.233814204 0.250079822 0.283217079 0.395082129c 0.049402875 0.145002307 0.049806135 0.30264949 0.013200173 0.474931712c -0.036605962 0.172282221 -0.123839378 0.361814121 -0.232835945 0.558761616c -0.108996568 0.196947495 -0.263771507 0.409511282 -0.421143461 0.622923354c -0.157371954 0.213412072 -0.348721095 0.43837901 -0.523088264 0.657549079c -0.174367169 0.219170069 -0.365729049 0.444099617 -0.523114752 0.657471334c -0.157385703 0.213371717 -0.31218497 0.425864099 -0.421199467 0.622758969c -0.109014497 0.196894869 -0.196265061 0.386376438 -0.232887517 0.558610247c -0.036622457 0.172233808 -0.03561676 0.331649203 0.013152778 0.474792604c 0.048769538 0.143143401 0.145302981 0.270014989 0.279464453 0.384067802c 0.134161472 0.114052812 0.31895105 0.210857864 0.525504378 0.300249072c 0.206553328 0.089391208 0.458891363 0.163184722 0.713815587 0.236098177c 0.254924225 0.072913455 0.543819515 0.134254076 0.815729762 0.201382552c 0.271910247 0.067128476 0.560806189 0.128471011 0.815731721 0.201388303c 0.254925532 0.072917292 0.507265526 0.146716554 0.713821473 0.236115451c 0.206555947 0.089398896 0.391348797 0.186213549 0.525514209 0.300277926c 0.134165412 0.114064377 0.23070345 0.240949454 0.279478263 0.384108335c 0.048774813 0.143158881 0.049786444 0.302591696 0.013170613 0.474844952c -0.03661583 0.172253257 -0.123859099 0.361756237 -0.232865596 0.558674587c -0.109006497 0.196918351 -0.263797085 0.409436206 -0.421173387 0.622835516c -0.157376302 0.21339931 -0.348723102 0.438373119 -0.523084427 0.657560343c -0.174361325 0.219187224 -0.365707824 0.444161915 -0.523083521 0.657562999c -0.157375698 0.213401084 -0.312163723 0.425926462 -0.421170665 0.622843505c -0.109006943 0.196917043 -0.196921964 0.384448362 -0.232870991 0.558658754c -0.035949027 0.174210391 -0.032057261 0.342096685 0.01717683 0.486603594c 0.049234091 0.144506908 0.144438803 0.267478543 0.278227716 0.380437856c 0.133788912 0.112959313 0.318245904 0.208788191 0.524505758 0.297318023c 0.206259853 0.088529832 0.458344105 0.161578467 0.713053362 0.233860971c 0.254709257 0.072282504 0.543428983 0.133107828 0.815202181 0.199834051c 0.271773198 0.066726224 0.560573225 0.127787239 0.815437008 0.20052329c 0.254863782 0.07273605 0.507230992 0.146615194 0.713745687 0.235893012c 0.206514695 0.089277819 0.391273528 0.185992627 0.525342485 0.299773899c 0.134068957 0.113781272 0.230471629 0.240269037 0.279071257 0.382913734c 0.048599628 0.142644697 0.049396859 0.301448225 0.012526511 0.472954449c -0.036870348 0.171506224 -0.124407652 0.36014618 -0.233748597 0.556082894c -0.109340945 0.195936714 -0.265283091 0.405074632 -0.422297073 0.619537388c -0.157013982 0.214462756 -0.345972634 0.446446014 -0.519786819 0.667239146c -0.173814185 0.220793132 -0.365720199 0.444125592 -0.523098293 0.657519644c -0.157378094 0.213394051 -0.312164875 0.425923078 -0.421170271 0.622844663c -0.109005395 0.196921585 -0.196247503 0.386427974 -0.232862101 0.558684847c -0.036614598 0.172256873 -0.035601672 0.33169349 0.013174511 0.474856393c 0.048776183 0.143162903 0.145315658 0.270052198 0.279482586 0.384121024c 0.134166928 0.114068826 0.318961365 0.210888137 0.525518981 0.300291933c 0.206557616 0.089403796 0.458899354 0.163208177 0.713826717 0.236130842c 0.254927363 0.072922665 0.543825214 0.134270804 0.815737461 0.201405149c 0.271912247 0.067134345 0.560809619 0.128481078 0.81573602 0.201400921c 0.254926401 0.072919843 0.507266699 0.146719999 0.713822388 0.236118138c 0.206555689 0.089398139 0.391347719 0.186210386 0.525511745 0.300270694c 0.134164026 0.114060308 0.230700116 0.240939669 0.279472409 0.384091155c 0.048772293 0.143151485 0.049780842 0.302575252 0.013161348 0.474817757c -0.036619494 0.172242505 -0.123866992 0.36173307 -0.23287831 0.55863727c -0.109011318 0.1969042 -0.2638073 0.409406226 -0.421189599 0.622787932c -0.1573823 0.213381707 -0.348735678 0.438336208 -0.523104199 0.657502308c -0.174368522 0.2191661 -0.365722809 0.444117932 -0.523106931 0.657494291c -0.157384122 0.213376359 -0.312182834 0.42587037 -0.421197801 0.62276386c -0.109014967 0.196893491 -0.196267024 0.386370677 -0.232892002 0.558597084c -0.036624978 0.172226407 -0.035632831 0.331602035 0.013142132 0.474761357c 0.048774963 0.143159323 0.145331579 0.270098926 0.279507646 0.384194578c 0.134176067 0.114095652 0.318981249 0.210946498 0.525548759 0.300379334c 0.20656751 0.089432836 0.458919079 0.163266072 0.713856303 0.23621768c 0.254937224 0.072951608 0.543279133 0.132668003 0.815767041 0.201491969c 0.272487908 0.068823966 0.563764531 0.137154036 0.819160405 0.211451828c 0.255395874 0.074297791 0.506850399 0.145498115 0.713214839 0.23433492c 0.20636444 0.088836805 0.3909765 0.185120822 0.524971802 0.298685909c 0.133995302 0.113565087 0.230373935 0.239982296 0.279000008 0.382704611c 0.048626073 0.142722315 0.049499658 0.30174995 0.012756429 0.473629279c -0.036743229 0.171879329 -0.123961782 0.361454853 -0.233215803 0.557646697c -0.109254021 0.196191844 -0.264767493 0.406587963 -0.422308323 0.619504368c -0.15754083 0.212916406 -0.348622934 0.438667121 -0.522936655 0.657994065c -0.174313721 0.219326944 -0.365652974 0.444322906 -0.522945673 0.657967599c -0.157292699 0.213644693 -0.311881926 0.426753563 -0.420810523 0.62390056c -0.108928596 0.197146997 -0.196030634 0.387064505 -0.232761056 0.558981423c -0.036730423 0.171916918 -0.036220988 0.329875737 0.012378521 0.472520084c 0.048599509 0.142644347 0.145147378 0.26955828 0.279218532 0.383345999c 0.134071153 0.113787719 0.318762084 0.210303229 0.525208389 0.299380315c 0.206446305 0.089077086 0.458639187 0.162444562 0.71346944 0.235082201c 0.254830253 0.072637639 0.543606933 0.133630128 0.81551208 0.200743634c 0.271905147 0.067113505 0.560933524 0.128844751 0.8159188 0.201937397c 0.254985276 0.073092646 0.50738224 0.147059123 0.713992856 0.236618477c 0.206610616 0.089559354 0.391455524 0.186526803 0.525670838 0.300737648c 0.134215314 0.114210845 0.230800801 0.241235188 0.279621048 0.384527423c 0.048820247 0.143292235 0.04987501 0.302851647 0.013300434 0.475225988c -0.036574576 0.172374341 -0.123778747 0.361992079 -0.232747893 0.559020059c -0.108969146 0.197027981 -0.263724396 0.409649554 -0.421066983 0.623147824c -0.157342586 0.21349827 -0.348657548 0.438565527 -0.522988534 0.657841795c -0.174330987 0.219276269 -0.365648895 0.444334877 -0.522997386 0.657815816c -0.157348491 0.213480938 -0.312112589 0.426076544 -0.421093561 0.623069814c -0.108980972 0.19699327 -0.196199914 0.38656765 -0.23279227 0.558889808c -0.036592355 0.172322158 -0.03555833 0.331820703 0.013238137 0.475043142c 0.048796467 0.143222439 0.145355195 0.270168242 0.279540664 0.384291489c 0.134185469 0.114123247 0.318332555 0.209042518 0.525572151 0.300447992c 0.207239596 0.091405474 0.462477836 0.173711375 0.717865426 0.247984852c 0.25538759 0.074273477 0.542929508 0.13164182 0.814460113 0.197656008c 0.271530605 0.066014188 0.560090742 0.126371105 0.814723516 0.198429122c 0.254632774 0.072058017 0.506795122 0.145335872 0.713073127 0.233918982c 0.206278005 0.08858311 0.693251099 0.117287962 0.524594906 0.297579681c -0.168656193 0.180291719 -1.024354709 0.522780422 -1.536532064 0.784170633"/><path fill="none" transform="translate(5.28 5.28)" d="M 0 0h 20.29544v 8.3072h -20.29544v -8.3072Z "/><g transform="translate(5.279999956 5.279999956)"><g transform="matrix(1 0 0 -1 0 6.0104)"><use xlink:href="#gE20CEABBE92D7595B5B93F60B429776C" x="0" y="0" fill="#f8effa" fill-rule="nonzero"/></g><g transform="matrix(1 0 0 -1 5.0248 6.0104)"><use xlink:href="#g48079E78CDA4DD5843668BC65E75D340" x="0" y="0" fill="#f8effa" fill-rule="nonzero"/></g><g transform="matrix(1 0 0 -1 8.448 6.0104)"><use xlink:href="#gB356A27A1372735628A82BDFEE9793AB" x="0" y="0" fill="#f8effa" fill-rule="nonzero"/></g><g transform="matrix(1 0 0 -1 12.8744 8.184)"><use xlink:href="#g6628AF3310CEA24A07929B1F774CF236" x="0" y="0" fill="#f8effa" fill-rule="nonzero"/></g><g transform="matrix(1 0 0 -1 16.87224 6.0104)"><use xlink:href="#gC0387D0D83D6AF7EECBCF56D149D8BE6" x="0" y="0" fill="#f8effa" fill-rule="nonzero"/></g></g><path fill="none" stroke="#ead9f0" stroke-width="0.55" stroke-linecap="round" stroke-linejoin="miter" stroke-miterlimit="4" transform="translate(44.139699033 96.168863325)" d="M 0 0m 0 28.249024221c 3.208185819 -9.416341407 6.416371637 -18.832682814 9.624557456 -28.249024221"/><path fill="none" stroke="#ead9f0" stroke-width="0.55" stroke-linecap="round" stroke-linejoin="miter" stroke-miterlimit="4" transform="translate(34.515141577 126.565070824)" d="M 0 0m 0 26.101840943c 2.96433446 -8.700613648 5.928668919 -17.401227295 8.893003379 -26.101840943"/><path fill="#f8effa" fill-rule="nonzero" stroke="#f8effa" stroke-width="0.2" stroke-linecap="butt" stroke-linejoin="miter" stroke-miterlimit="4" transform="translate(41.898851158 122.540287363)" d="M 0 0m 2.880553894 0l 0.138033702 4.539005997l -3.018587596 -1.028445072l 2.880553894 -3.510560925Z "/><path fill="none" transform="translate(5.517599924 174.809416743)" d="M 0 0h 20.05784v 8.1928h -20.05784v -8.1928Z "/><g transform="translate(5.51759988 174.809416721)"><g transform="matrix(1 0 0 -1 0 6.0104)"><use xlink:href="#g4D60E008065C2368689AAEF64DBA1131" x="0" y="0" fill="#f8effa" fill-rule="nonzero"/></g><g transform="matrix(1 0 0 -1 4.7872 6.0104)"><use xlink:href="#g48079E78CDA4DD5843668BC65E75D340" x="0" y="0" fill="#f8effa" fill-rule="nonzero"/></g><g transform="matrix(1 0 0 -1 8.2104 6.0104)"><use xlink:href="#gB356A27A1372735628A82BDFEE9793AB" x="0" y="0" fill="#f8effa" fill-rule="nonzero"/></g><g transform="matrix(1 0 0 -1 12.6368 8.184)"><use xlink:href="#gA929DB0B2C612CCF04FAE9F980D3EB7F" x="0" y="0" fill="#f8effa" fill-rule="nonzero"/></g><g transform="matrix(1 0 0 -1 16.63464 6.0104)"><use xlink:href="#gC0387D0D83D6AF7EECBCF56D149D8BE6" x="0" y="0" fill="#f8effa" fill-rule="nonzero"/></g></g><path fill="none" stroke="#f8effa" stroke-width="0.55" stroke-linecap="round" stroke-linejoin="miter" stroke-miterlimit="4" transform="translate(301.021156335 35.351312344)" d="M 0 0m 1.205377208 56.819274453c -0.174227385 -0.219578461 -0.365145027 -0.445809991 -0.522682155 -0.658735384c -0.157537128 -0.212925393 -0.313160988 -0.422995661 -0.422540615 -0.618816972c -0.109379626 -0.195821311 -0.196787205 -0.384840148 -0.233737143 -0.556110895c -0.036949938 -0.171270747 -0.037096688 -0.327301762 0.012037514 -0.471513589c 0.049134202 -0.144211827 0.148044692 -0.278058308 0.282767696 -0.393757371c 0.134723005 -0.115699062 0.318994495 -0.210981609 0.525570332 -0.300437002c 0.206575837 -0.089455393 0.458936774 -0.16331424 0.713884692 -0.236295354c 0.254947919 -0.072981114 0.543867421 -0.134390917 0.815802819 -0.20159133c 0.271935398 -0.067200413 0.560857147 -0.12861681 0.815809571 -0.201611147c 0.254952424 -0.072994337 0.507320108 -0.14687299 0.713904971 -0.236354875c 0.206584863 -0.089481885 0.391407575 -0.186382301 0.525604209 -0.300536434c 0.134196634 -0.114154133 0.230766984 -0.241132163 0.279575596 -0.384388365c 0.048808612 -0.143256201 0.049855271 -0.302789942 0.013276077 -0.475148844c -0.036579195 -0.172358902 -0.123784467 -0.361971521 -0.232751245 -0.559004567c -0.108966778 -0.197033047 -0.263716161 -0.409669958 -0.421049421 -0.623193714c -0.157333261 -0.213523756 -0.348635416 -0.438626717 -0.522950143 -0.657948824c -0.174314727 -0.219322107 -0.365612912 -0.444436721 -0.52293822 -0.657983819c -0.157325308 -0.213547098 -0.312062772 -0.426218992 -0.421013627 -0.623298771c -0.108950856 -0.197079779 -0.196119523 -0.386799836 -0.232691507 -0.559179901c -0.036571984 -0.172380065 -0.035466756 -0.33208571 0.013259602 -0.475100489c 0.048726357 -0.143014779 0.145051506 -0.269273129 0.279098543 -0.382988186c 0.134047037 -0.113715057 0.318729718 -0.210204474 0.52518368 -0.299302155c 0.206453962 -0.08909768 0.458700161 -0.162619768 0.71354009 -0.235283927c 0.254839929 -0.07266416 0.54373325 -0.133997117 0.815499486 -0.200701031c 0.271766237 -0.066703914 0.560258822 -0.126860691 0.815097934 -0.199522452c 0.254839112 -0.072661761 0.507297916 -0.146807856 0.713936738 -0.236448112c 0.206638822 -0.089640255 0.391642249 -0.187071082 0.525896192 -0.30139342c 0.134253943 -0.114322339 0.230975398 -0.241743871 0.279627468 -0.384540611c 0.04865207 -0.14279674 0.049100508 -0.300574668 0.01228495 -0.472239827c -0.036815559 -0.171665159 -0.124056572 -0.361172874 -0.233178302 -0.557751128c -0.109121729 -0.196578254 -0.264038509 -0.408723845 -0.421552075 -0.621718395c -0.157513566 -0.21299455 -0.349008622 -0.437531335 -0.52352932 -0.656248905c -0.174520698 -0.218717569 -0.366037604 -0.443190223 -0.52359487 -0.656056512c -0.157557265 -0.212866289 -0.312539595 -0.424819486 -0.421748723 -0.621141221c -0.109209128 -0.196321735 -0.197406701 -0.383021891 -0.233506043 -0.556789188c -0.036099342 -0.173767297 -0.032493466 -0.340812492 0.016909989 -0.485814595c 0.049403456 -0.145002103 0.145334085 -0.270102515 0.279510744 -0.384198021c 0.134176659 -0.114095505 0.31898113 -0.210942382 0.525549211 -0.300375011c 0.206568082 -0.089432629 0.458926325 -0.163283573 0.713859279 -0.236220764c 0.254932954 -0.072937191 0.543830044 -0.134281213 0.815738443 -0.201402382c 0.271908399 -0.067121169 0.560792749 -0.128427798 0.815711953 -0.201324633c 0.254919204 -0.072896835 0.50725312 -0.146676375 0.713803271 -0.236056379c 0.206550152 -0.089380004 0.391337474 -0.18617655 0.525497639 -0.300223642c 0.134160165 -0.114047092 0.230693236 -0.240915708 0.279463349 -0.384058913c 0.048770113 -0.143143205 0.04977733 -0.302561181 0.013157331 -0.474800317c -0.03662 -0.172239136 -0.123867157 -0.361728819 -0.232877329 -0.558634501c -0.109010172 -0.196905682 -0.263804169 -0.409411647 -0.421183702 -0.622799591c -0.157379533 -0.213387945 -0.348729323 -0.438351093 -0.523093495 -0.657528077c -0.174364172 -0.219176984 -0.36571331 -0.444142046 -0.523091535 -0.657533828c -0.157378225 -0.213391782 -0.312170265 -0.425903495 -0.421177817 -0.622816865c -0.109007553 -0.19691337 -0.196251439 -0.386412655 -0.232867498 -0.558663356c -0.03661606 -0.172250701 -0.035604247 -0.331682165 0.013171141 -0.47484085c 0.048775388 -0.143158685 0.145314394 -0.270044721 0.279481185 -0.384111262c 0.134166791 -0.114066541 0.318961408 -0.210884498 0.52551956 -0.300287983c 0.206558152 -0.089403485 0.458900747 -0.163208498 0.713829352 -0.236132927c 0.254928605 -0.072924428 0.543828035 -0.134275319 0.815742279 -0.201413642c 0.271914244 -0.067138324 0.560813975 -0.128490097 0.815743184 -0.201416299c 0.25492921 -0.072926202 0.507274367 -0.146738738 0.713832074 -0.236140915c 0.206557707 -0.089402178 0.390680555 -0.184248454 0.525514166 -0.300272151c 0.134833611 -0.116023697 0.234252819 -0.2513633 0.283487498 -0.39587003c 0.049234678 -0.14450673 0.048913137 -0.300024722 0.011920571 -0.471170352c -0.036992567 -0.171145631 -0.124572317 -0.359659133 -0.23387597 -0.555703432c -0.109303652 -0.196044299 -0.264351439 -0.407805377 -0.421945945 -0.620562363c -0.157594506 -0.212756986 -0.349119865 -0.43720483 -0.52362109 -0.655979554c -0.174501225 -0.218774724 -0.365946283 -0.443458257 -0.523386261 -0.656668791c -0.157439978 -0.213210534 -0.312204804 -0.425802119 -0.421253608 -0.622594413c -0.109048804 -0.196792295 -0.196326703 -0.386191749 -0.233039216 -0.558159355c -0.036712513 -0.171967605 -0.035836064 -0.331001767 0.01276414 -0.473646278c 0.048600204 -0.142644511 0.14492481 -0.26890127 0.278837084 -0.382220788c 0.133912274 -0.113319518 0.318412855 -0.209274462 0.524636559 -0.297696321c 0.206223704 -0.088421859 0.457414739 -0.158846977 0.712705662 -0.232834831c 0.255290923 -0.073987854 0.546578496 -0.142348087 0.819039878 -0.211092293c 0.272461382 -0.068744206 0.560801598 -0.128453771 0.815728412 -0.201372941c 0.254926813 -0.072919169 0.507273214 -0.146735355 0.713832468 -0.236142074c 0.206559254 -0.089406719 0.391355033 -0.186228085 0.525523056 -0.300298243c 0.134168023 -0.114070158 0.230708325 -0.240959995 0.279485083 -0.384122702c 0.048776758 -0.143162707 0.049790008 -0.302598389 0.013175464 -0.47485354c -0.036614544 -0.17225515 -0.123856843 -0.361759092 -0.232862726 -0.558677362c -0.109005883 -0.19691827 -0.263796178 -0.409435102 -0.421172573 -0.622832257c -0.157376395 -0.213397155 -0.348723624 -0.438367821 -0.523085796 -0.657550674c -0.174362172 -0.219182853 -0.36570988 -0.444152113 -0.523087236 -0.657546446c -0.157377356 -0.213394333 -0.312169091 -0.42590694 -0.421176901 -0.622819553c -0.109007811 -0.196912613 -0.196252516 -0.386409491 -0.232869962 -0.558656124c -0.036617446 -0.172246632 -0.03560758 -0.331672381 0.013165287 -0.47482367c 0.048772868 -0.143151289 0.145308791 -0.270028278 0.279471919 -0.384084066c 0.134163127 -0.114055789 0.318953515 -0.210861331 0.525506846 -0.300250666c 0.206553331 -0.089389335 0.458890532 -0.163178518 0.71381314 -0.236085343c 0.254922608 -0.072906825 0.54381546 -0.134238408 0.815722507 -0.201355608c 0.271907047 -0.0671172 0.560798989 -0.128446114 0.815719775 -0.201347591c 0.254920786 -0.072901477 0.507255256 -0.146682646 0.713804938 -0.236061271c 0.206549682 -0.089378625 0.391335511 -0.186170789 0.525493154 -0.30021048c 0.134157643 -0.114039691 0.230677166 -0.240868542 0.279452703 -0.384027667c 0.048775537 -0.143159125 0.049805926 -0.30264511 0.013200521 -0.474927084c -0.036605404 -0.172281975 -0.123836959 -0.361817454 -0.232832948 -0.558764763c -0.108995989 -0.19694731 -0.263776453 -0.409492996 -0.421142987 -0.622919094c -0.157366534 -0.213426098 -0.349269718 -0.436765003 -0.523056215 -0.657637494c -0.173786498 -0.220872491 -0.3627549 -0.452825157 -0.519662772 -0.667597454c -0.156907872 -0.214772297 -0.312585399 -0.42468505 -0.421784462 -0.621036326c -0.109199063 -0.196351276 -0.196623742 -0.385319922 -0.233409915 -0.557071329c -0.036786173 -0.171751408 -0.035933768 -0.330715001 0.012692877 -0.473437118c 0.048626645 -0.142722116 0.145027602 -0.269202969 0.279066991 -0.382895579c 0.134039389 -0.11369261 0.318858726 -0.210583119 0.525169346 -0.299260083c 0.20631062 -0.088676964 0.457930303 -0.16036019 0.712694375 -0.232801701c 0.254764071 -0.072441511 0.543928205 -0.134569322 0.815890053 -0.201847366c 0.271961848 -0.067278044 0.560868826 -0.128651087 0.815881035 -0.201820899c 0.25501221 -0.073169812 0.507556168 -0.147565842 0.714192222 -0.237197974c 0.206636054 -0.089632132 0.391571901 -0.186864607 0.525624102 -0.300594819c 0.134052201 -0.113730213 0.230089018 -0.239142293 0.278689103 -0.381786456c 0.048600086 -0.142644163 0.049621728 -0.302104478 0.01291141 -0.474078524c -0.036710318 -0.171974046 -0.124056124 -0.361174191 -0.233173319 -0.557765754c -0.109117195 -0.196591563 -0.264056339 -0.408671513 -0.42152985 -0.621783626c -0.157473511 -0.213112113 -0.348941937 -0.437727057 -0.523311216 -0.656889053c -0.174369278 -0.219161996 -0.365585973 -0.444515788 -0.522904454 -0.658082924c -0.157318481 -0.213567136 -0.312053548 -0.426246065 -0.421006431 -0.623319893c -0.108952883 -0.197073829 -0.19614471 -0.386725909 -0.232710867 -0.559123079c -0.036566156 -0.17239717 -0.035506894 -0.331967901 0.013313928 -0.47525994c 0.048820823 -0.14329204 0.145402962 -0.270304673 0.279611007 -0.384492299c 0.134208045 -0.114187626 0.319041762 -0.211120341 0.525637266 -0.300633457c 0.206595504 -0.089513115 0.458973436 -0.163421847 0.713935758 -0.236445236c 0.254962322 -0.073023389 0.543893591 -0.134467728 0.815838173 -0.201695097c 0.271944582 -0.067227369 0.560872905 -0.12866306 0.815829322 -0.201669117c 0.254956417 -0.073006057 0.507325502 -0.146888821 0.713909179 -0.236367226c 0.206583678 -0.089478405 0.391402622 -0.186367762 0.525592888 -0.300503204c 0.134190266 -0.114135443 0.230751668 -0.241087209 0.27954871 -0.384309452c 0.048797042 -0.143222243 0.049829545 -0.302714434 0.013233543 -0.475024006c -0.036596002 -0.172309571 -0.124485678 -0.359913424 -0.232809555 -0.558833423c -0.108323877 -0.198919998 -0.260217561 -0.419938559 -0.417133708 -0.634686567c -0.156916148 -0.214748008 -0.349619353 -0.435738803 -0.524363178 -0.653801482c -0.174743825 -0.218062679 -0.366428778 -0.442042105 -0.524099772 -0.654574595c -0.157670994 -0.21253249 -0.312640679 -0.4245228 -0.421926191 -0.620620343c -0.109285512 -0.196097543 -0.477437279 -0.516142697 -0.23378688 -0.555964915c 0.2436504 -0.039822219 1.130459518 0.211354402 1.695689277 0.317031602"/><path fill="none" transform="translate(330.415693235 5.337313845)" d="M 0 0h 20.29544v 8.1928h -20.29544v -8.1928Z "/><g transform="translate(330.415693191 5.337313823)"><g transform="matrix(1 0 0 -1 0 6.0104)"><use xlink:href="#gE20CEABBE92D7595B5B93F60B429776C" x="0" y="0" fill="#f8effa" fill-rule="nonzero"/></g><g transform="matrix(1 0 0 -1 5.0248 6.0104)"><use xlink:href="#g48079E78CDA4DD5843668BC65E75D340" x="0" y="0" fill="#f8effa" fill-rule="nonzero"/></g><g transform="matrix(1 0 0 -1 8.448 6.0104)"><use xlink:href="#gB356A27A1372735628A82BDFEE9793AB" x="0" y="0" fill="#f8effa" fill-rule="nonzero"/></g><g transform="matrix(1 0 0 -1 12.8744 8.184)"><use xlink:href="#gD835EBEC661838FE8BAD863F1C15EA0F" x="0" y="0" fill="#f8effa" fill-rule="nonzero"/></g><g transform="matrix(1 0 0 -1 16.87224 6.0104)"><use xlink:href="#gC0387D0D83D6AF7EECBCF56D149D8BE6" x="0" y="0" fill="#f8effa" fill-rule="nonzero"/></g></g><path fill="none" stroke="#d8b9e3" stroke-width="0.55" stroke-linecap="round" stroke-linejoin="miter" stroke-miterlimit="4" transform="translate(311.851210393 124.417894527)" d="M 0 0c 3.2082253 9.416333679 6.416450599 18.832667359 9.624675899 28.249001038"/><path fill="none" stroke="#d8b9e3" stroke-width="0.55" stroke-linecap="round" stroke-linejoin="miter" stroke-miterlimit="4" transform="translate(302.226533531 96.168890664)" d="M 0 0c 2.964371393 8.700607839 5.928742787 17.401215677 8.89311418 26.101823516"/><path fill="#f8effa" fill-rule="nonzero" stroke="#f8effa" stroke-width="0.2" stroke-linecap="butt" stroke-linejoin="miter" stroke-miterlimit="4" transform="translate(309.610355974 121.756485596)" d="M 0 0m 2.880567962 4.53900655l -2.880567962 -3.510549382l 3.018583474 -1.028457168l -0.138015513 4.53900655Z "/><path fill="none" transform="translate(330.41569309 174.752164717)" d="M 0 0h 20.05784v 8.3072h -20.05784v -8.3072Z "/><g transform="translate(330.415693046 174.752164673)"><g transform="matrix(1 0 0 -1 0 6.0104)"><use xlink:href="#g4D60E008065C2368689AAEF64DBA1131" x="0" y="0" fill="#f8effa" fill-rule="nonzero"/></g><g transform="matrix(1 0 0 -1 4.7872 6.0104)"><use xlink:href="#g48079E78CDA4DD5843668BC65E75D340" x="0" y="0" fill="#f8effa" fill-rule="nonzero"/></g><g transform="matrix(1 0 0 -1 8.2104 6.0104)"><use xlink:href="#gB356A27A1372735628A82BDFEE9793AB" x="0" y="0" fill="#f8effa" fill-rule="nonzero"/></g><g transform="matrix(1 0 0 -1 12.6368 8.184)"><use xlink:href="#gA29CEF53201F8F6F080645222598278A" x="0" y="0" fill="#f8effa" fill-rule="nonzero"/></g><g transform="matrix(1 0 0 -1 16.63464 6.0104)"><use xlink:href="#gC0387D0D83D6AF7EECBCF56D149D8BE6" x="0" y="0" fill="#f8effa" fill-rule="nonzero"/></g></g><path fill="none" stroke="#ead9f0" stroke-width="0.55" stroke-linecap="round" stroke-linejoin="miter" stroke-miterlimit="4" transform="translate(98.144535546 94.169712994)" d="M 0 0c 14.29316371 1.557e-6 28.586327421 3.252e-6 42.879491131 5.085e-6"/><path fill="none" stroke="#d8b9e3" stroke-width="0.55" stroke-linecap="round" stroke-linejoin="miter" stroke-miterlimit="4" transform="translate(56.55812047 94.16970885)" d="M 0 0c 13.106010254 1.184e-6 26.212020508 2.483e-6 39.318030762 3.898e-6"/><path fill="#f8effa" fill-rule="nonzero" stroke="#f8effa" stroke-width="0.2" stroke-linecap="butt" stroke-linejoin="miter" stroke-miterlimit="4" transform="translate(95.876151059 92.57522456)" d="M 0 0m 4.251968676 1.594488649l -4.251968676 1.594487729l 3.45e-7 -3.188976378l 4.251968331 1.594488649Z "/><path fill="none" transform="translate(95.750938575 63.396112994)" d="M 0 0h 4.7872v 6.1072h -4.7872v -6.1072Z "/><g transform="translate(95.750938553 63.396112972)"><g transform="matrix(1 0 0 -1 0 6.0104)"><use xlink:href="#g4D60E008065C2368689AAEF64DBA1131" x="0" y="0" fill="#f8effa" fill-rule="nonzero"/></g></g><path fill="none" stroke="#ead9f0" stroke-width="0.55" stroke-linecap="round" stroke-linejoin="miter" stroke-miterlimit="4" transform="translate(177.995427533 95.998206756)" d="M 0 0m 0 18.894451932c 13.831593402 -0.000011158 26.609527385 -7.196502475 33.800435154 -18.894451932"/><path fill="none" stroke="#d8b9e3" stroke-width="0.55" stroke-linecap="round" stroke-linejoin="miter" stroke-miterlimit="4" transform="translate(144.19491894 95.998197331)" d="M 0 0c 6.79585338 11.055291702 18.58171715 18.090139333 31.531088304 18.829745045"/><path fill="#f8effa" fill-rule="nonzero" stroke="#f8effa" stroke-width="0.2" stroke-linecap="butt" stroke-linejoin="miter" stroke-miterlimit="4" transform="translate(175.659627944 113.200707753)" d="M 0 0m 4.317494474 1.778505065l -4.317494474 1.407433909l 0.139151683 -3.185938974l 4.178342791 1.778505065Z "/><path fill="none" transform="translate(175.601823708 139.559058687)" d="M 0 0h 4.7872v 6.1072h -4.7872v -6.1072Z "/><g transform="translate(175.601823686 139.559058665)"><g transform="matrix(1 0 0 -1 0 6.0104)"><use xlink:href="#g4D60E008065C2368689AAEF64DBA1131" x="0" y="0" fill="#f8effa" fill-rule="nonzero"/></g></g><path fill="none" stroke="#f8effa" stroke-width="0.55" stroke-linecap="round" stroke-linejoin="miter" stroke-miterlimit="4" transform="translate(143.765236602 71.667832537)" d="M 0 0m 0.429682856 20.673407133c 0.092031155 -0.166562623 0.194756457 -0.308046474 0.276093464 -0.499687868c 0.081337007 -0.191641394 0.178580262 -0.443740509 0.211928578 -0.650160495c 0.033348316 -0.206419986 0.033749057 -0.441105296 -0.01183868 -0.588359421c -0.045587737 -0.147254125 -0.156219039 -0.26306476 -0.261687741 -0.295165328c -0.105468702 -0.032100568 -0.265800038 0.009335937 -0.371124472 0.102561921c -0.105324434 0.093225984 -0.233809965 0.289401257 -0.260822131 0.456793986c -0.027012165 0.167392729 -0.015557881 0.407845045 0.098749139 0.547562386c 0.11430702 0.139717341 0.331679868 0.264059654 0.587092981 0.290741661c 0.255413113 0.026682007 0.601810926 -0.02463272 0.9453857 -0.13064962c 0.343574774 -0.1060169 0.735441548 -0.278636808 1.116062942 -0.505451783c 0.380621394 -0.226814974 0.791083983 -0.524579637 1.167665424 -0.855438064c 0.376581442 -0.330858428 0.760100825 -0.726614914 1.091823225 -1.129712502c 0.3317224 -0.403097587 0.646396745 -0.855746316 0.898511174 -1.288873022c 0.252114429 -0.433126706 0.465126123 -0.893003355 0.6141754 -1.309887216c 0.149049277 -0.416883861 0.242550663 -0.83418529 0.280120262 -1.191415948c 0.037569599 -0.357230658 0.011513111 -0.689063269 -0.054702668 -0.951967998c -0.066215779 -0.26290473 -0.197176172 -0.476275033 -0.342592006 -0.625460379c -0.145415834 -0.149185346 -0.338155099 -0.240622063 -0.529902998 -0.269651699c -0.191747899 -0.029029636 -0.424318927 0.016648479 -0.620584396 0.095473881c -0.19626547 0.078825402 -0.402347087 0.221167942 -0.557008421 0.37747853c -0.154661334 0.156310588 -0.295256544 0.364395059 -0.370959583 0.560384997c -0.075703039 0.195989938 -0.113828688 0.423587423 -0.083258652 0.615554632c 0.030570037 0.19196721 0.117391799 0.390879825 0.266678871 0.536248625c 0.149287072 0.1453688 0.36560045 0.272396409 0.629043563 0.335964174c 0.263443113 0.063567765 0.593645994 0.087976889 0.951615115 0.045442416c 0.357969121 -0.042534473 0.779552609 -0.14584278 1.196199609 -0.300649255c 0.416647 -0.154806475 0.873254276 -0.371551122 1.303682392 -0.628189594c 0.430428116 -0.256638472 0.879457556 -0.575802486 1.278886305 -0.911641239c 0.399428749 -0.335838752 0.790971115 -0.723421106 1.117686192 -1.103391274c 0.326715077 -0.379970168 0.619976079 -0.793493591 0.842604269 -1.176429734c 0.22262819 -0.382936143 0.392692883 -0.777708251 0.493164872 -1.121187122c 0.100471989 -0.343478872 0.12829993 -0.669982394 0.109667061 -0.939686108c -0.018632869 -0.269703714 -0.104375864 -0.506171925 -0.221464277 -0.678536175c -0.117088414 -0.17236425 -0.297657576 -0.292325155 -0.481066204 -0.355649327c -0.183408628 -0.063324172 -0.413725681 -0.065043496 -0.619385567 -0.024295703c -0.205659885 0.040747792 -0.434550721 0.143496922 -0.614573745 0.268782458c -0.180023025 0.125285536 -0.355896897 0.304227649 -0.465564402 0.482930759c -0.109667506 0.17870311 -0.188084735 0.395285844 -0.192440633 0.589287901c -0.004355897 0.194002057 0.045311907 0.405073287 0.166305248 0.57472444c 0.120993341 0.169651153 0.309224368 0.33486676 0.559654799 0.443182477c 0.250430431 0.108315717 0.582414329 0.183974595 0.942927786 0.206711825c 0.360513456 0.02273723 0.784391313 0.004670223 1.220152953 -0.070288443c 0.43576164 -0.074958666 0.926643668 -0.206614097 1.394416889 -0.379463552c 0.467773221 -0.172849455 0.956811505 -0.399190983 1.412222435 -0.657633179c 0.455410929 -0.258442196 0.928372404 -0.577867747 1.320243141 -0.893019998c 0.391870737 -0.315152251 0.744691339 -0.662896347 1.030981278 -0.997893506c 0.286289939 -0.334997159 0.524444694 -0.692116429 0.686758357 -1.012089445c 0.162313663 -0.319973016 0.252389878 -0.637461847 0.28712362 -0.907748651c 0.034733743 -0.270286804 0.002372097 -0.522055486 -0.078721165 -0.713972172c -0.081093261 -0.191916686 -0.239088643 -0.341813138 -0.407838404 -0.437527946c -0.168749761 -0.095714808 -0.394997623 -0.139345504 -0.604660163 -0.136760901c -0.20966254 0.002584603 -0.453461863 0.061895699 -0.653315078 0.15226852c -0.199853215 0.09037282 -0.405400749 0.234256277 -0.545804211 0.389968403c -0.140403461 0.155712126 -0.256979428 0.35436059 -0.296616557 0.544304353c -0.039637129 0.189943764 -0.029187591 0.40647582 0.058793785 0.595358229c 0.087981376 0.188882409 0.2451552 0.384600162 0.469094473 0.537936226c 0.223939273 0.153336064 0.526161688 0.293159073 0.874541165 0.382080156c 0.348379477 0.088921083 0.774654553 0.145473737 1.215735697 0.151446343c 0.441081143 0.005972606 0.938907084 -0.030652377 1.430751163 -0.115610705c 0.491844079 -0.084958328 1.027210797 -0.223312492 1.52031331 -0.394139263c 0.493102512 -0.170826771 0.997334608 -0.39279247 1.438301764 -0.630821365c 0.440967156 -0.238028896 0.862663288 -0.519343178 1.207501173 -0.797352009c 0.344837885 -0.278008832 0.641172163 -0.585069475 0.861526136 -0.87070098c 0.220353972 -0.285631506 0.378207434 -0.583864332 0.460597697 -0.843088053c 0.082390263 -0.259223721 0.082117449 -0.50957839 0.033743879 -0.712254272c -0.048373569 -0.202675883 -0.174742644 -0.379167781 -0.323985296 -0.503801025c -0.149242651 -0.124633245 -0.364294082 -0.208549683 -0.571470613 -0.243998443c -0.207176531 -0.03544876 -0.458189756 -0.021331841 -0.67158857 0.031305885c -0.213398815 0.052637726 -0.441901073 0.156799845 -0.608804317 0.284520471c -0.166903245 0.127720625 -0.318901979 0.302193914 -0.392615151 0.481803282c -0.073713172 0.179609368 -0.101966429 0.394177815 -0.049663881 0.595852928c 0.052302548 0.201675113 0.171504039 0.42262401 0.363479169 0.614197752c 0.19197513 0.191573742 0.462518092 0.384335668 0.788371611 0.5352447c 0.325853519 0.150909033 0.732489735 0.284455746 1.166749503 0.370209495c 0.434259769 0.085753748 0.93796677 0.138696371 1.438809109 0.144312996c 0.500842339 0.005616624 1.050244373 -0.032445341 1.566244927 -0.11061325c 0.516000554 -0.078167909 1.052610593 -0.204642817 1.529758395 -0.358394206c 0.477147803 -0.153751389 0.943247323 -0.353558688 1.33312842 -0.56411413c 0.389881097 -0.210555442 0.738992024 -0.458548753 1.006158163 -0.69921852c 0.267166139 -0.240669767 0.469800492 -0.504945788 0.59683867 -0.744800082c 0.127038178 -0.239854293 0.175259295 -0.486195806 0.165390396 -0.694325679c -0.009868899 -0.208129872 -0.101239897 -0.404702347 -0.224603788 -0.554453556c -0.123363891 -0.149751209 -0.318899853 -0.271448793 -0.515579555 -0.344053699c -0.196679702 -0.072604905 -0.44554512 -0.104458165 -0.664498657 -0.091575733c -0.218953537 0.012882433 -0.46378793 0.073816434 -0.649222563 0.168870328c -0.185434633 0.095053894 -0.359124457 0.238313017 -0.463385237 0.401453036c -0.10426078 0.163140019 -0.175616893 0.369401954 -0.162179444 0.577387079c 0.013437448 0.207985125 0.089346256 0.447114191 0.242804135 0.670523673c 0.15345788 0.223409482 0.53736926 0.543897583 0.677943142 0.669933219c 0.140573882 0.126035637 0.110333434 0.057520401 0.165500151 0.086280602"/><path fill="none" stroke="#fbf6fc" stroke-width="0.55" stroke-linecap="round" stroke-linejoin="miter" stroke-miterlimit="4" transform="translate(175.361089309 71.922802448)" d="M 0 0m 0 2.322272327c 0.375497548 0.183235228 0.703206472 0.3966304 1.126492645 0.549705683c 0.423286173 0.153075283 0.91795719 0.284339394 1.413224391 0.368746014c 0.495267201 0.08440662 1.041911901 0.133244749 1.558378813 0.137693705c 0.516466912 0.004448956 1.053760363 -0.035769895 1.540422657 -0.110999966c 0.486662293 -0.075230071 0.973596737 -0.196587733 1.379551104 -0.340380462c 0.405954367 -0.143792729 0.770781741 -0.330686594 1.056175098 -0.522375909c 0.285393358 -0.191689315 0.509038888 -0.416132159 0.656185049 -0.627759984c 0.14714616 -0.211627825 0.21710101 -0.441318098 0.226691914 -0.642006966c 0.009590904 -0.200688868 -0.062084667 -0.402095963 -0.169146491 -0.562126244c -0.107061824 -0.160030281 -0.287512852 -0.303152835 -0.473224454 -0.398055443c -0.185711602 -0.094902608 -0.426161815 -0.157410312 -0.64104516 -0.171360205c -0.214883345 -0.013949892 -0.457846884 0.015703569 -0.648254911 0.087660851c -0.190408027 0.071957283 -0.378026004 0.192895192 -0.49419325 0.344082845c -0.116167246 0.151187653 -0.19955153 0.350080074 -0.202810224 0.563043072c -0.003258694 0.212962998 0.051358207 0.465868468 0.183258062 0.714734918c 0.131899855 0.24886645 0.33899397 0.524523974 0.608141069 0.778463784c 0.269147099 0.25393981 0.618138509 0.517629471 1.006741525 0.745175073c 0.388603016 0.227545603 0.852182356 0.446739088 1.324876571 0.620098543c 0.472694215 0.173359455 1.003140943 0.321317918 1.511288717 0.420058186c 0.508147774 0.098740268 1.047015084 0.158130117 1.537597927 0.172383423c 0.490582844 0.014253306 0.982885687 -0.018761485 1.405899135 -0.086863587c 0.423013448 -0.068102102 0.817194542 -0.18506567 1.132181555 -0.321749027c 0.314987013 -0.136683357 0.575173668 -0.316840785 0.757740525 -0.498351114c 0.182566857 -0.181510328 0.292466508 -0.394866818 0.337660615 -0.590710857c 0.045194107 -0.195844039 0.010547698 -0.40721938 -0.066495975 -0.584353376c -0.077043674 -0.177133997 -0.231892021 -0.351807602 -0.395766067 -0.478450604c -0.163874046 -0.126643002 -0.380565348 -0.229160543 -0.587478207 -0.281407409c -0.206912859 -0.052246866 -0.453453721 -0.068084303 -0.653998945 -0.032073786c -0.200545224 0.036010517 -0.407420209 0.120654893 -0.5492724 0.248136888c -0.141852191 0.127481996 -0.258007712 0.308467377 -0.301840748 0.516755086c -0.043833037 0.208287709 -0.043907292 0.464732266 0.038842527 0.732971167c 0.08274982 0.268238901 0.238606974 0.577623096 0.457656391 0.876462239c 0.219049417 0.298839142 0.51553014 0.622023623 0.856640112 0.916572616c 0.341109973 0.294548993 0.75683109 0.594334755 1.190019725 0.850721341c 0.433188635 0.256386586 0.927218061 0.498036982 1.409112084 0.687598175c 0.481894023 0.189561193 1.001988916 0.346360041 1.482252052 0.449768985c 0.480263136 0.103408943 0.970585938 0.160553744 1.399326764 0.170684674c 0.428740826 0.01013093 0.83805202 -0.03300431 1.173118189 -0.109899095c 0.33506617 -0.076894786 0.624162555 -0.206489497 0.837278828 -0.35146962c 0.213116273 -0.144980123 0.358033573 -0.335917567 0.441418813 -0.518411116c 0.08338524 -0.182493549 0.099543688 -0.389936561 0.058892627 -0.576550176c -0.040651061 -0.186613616 -0.162363076 -0.387452231 -0.302798992 -0.543131517c -0.140435917 -0.155679286 -0.343450146 -0.300610129 -0.539816507 -0.390944201c -0.196366362 -0.090334072 -0.436195566 -0.150779699 -0.638381663 -0.151060233c -0.202186097 -0.000280534 -0.411883365 0.049889366 -0.574734917 0.149377029c -0.162851552 0.099487663 -0.321072851 0.250843623 -0.402374396 0.44754895c -0.081301545 0.196705327 -0.119107001 0.453299996 -0.085434876 0.73268301c 0.033672125 0.279383014 0.127114765 0.610239246 0.287467626 0.943615075c 0.160352862 0.33337583 0.390571992 0.703574054 0.674649543 1.056639903c 0.284077551 0.353065849 0.648163029 0.729303643 1.029815764 1.061755193c 0.381652735 0.33245155 0.82084833 0.658722223 1.260100648 0.932954108c 0.439252318 0.274231885 0.92204704 0.523211735 1.375413262 0.712437202c 0.453366222 0.189225468 0.925063797 0.334794195 1.344784069 0.422915603c 0.419720272 0.088121409 0.830050746 0.120327983 1.173537563 0.105812848c 0.343486817 -0.014515135 0.65140681 -0.089203995 0.887383337 -0.192903659c 0.235976526 -0.103699663 0.415543127 -0.263107414 0.528475821 -0.429294321c 0.112932694 -0.166186907 0.158649395 -0.374001145 0.149120342 -0.56782712c -0.009529053 -0.193825975 -0.095591541 -0.415776123 -0.20629466 -0.595128733c -0.110703119 -0.179352609 -0.281721418 -0.356859122 -0.457924054 -0.480986924c -0.176202636 -0.124127802 -0.399126575 -0.225708282 -0.599291762 -0.263779888c -0.200165187 -0.038071606 -0.42363609 -0.032986242 -0.60169936 0.035350252c -0.178063269 0.068336494 -0.352973223 0.194535654 -0.466680256 0.374668714c -0.113707033 0.18013306 -0.199916597 0.423704233 -0.215561944 0.706129645c -0.015645347 0.282425412 0.023123962 0.630197148 0.121689863 0.98842283c 0.098565901 0.358225682 0.257265332 0.764288084 0.469705544 1.160931259c 0.212440212 0.396643176 0.492740524 0.824912152 0.804935727 1.218927795c 0.312195203 0.394015643 0.686538824 0.796069503 1.068235491 1.145166062c 0.381696667 0.34909656 0.810845936 0.68129307 1.221944512 0.949413296c 0.411098576 0.268120226 0.848330215 0.496823948 1.244646945 0.659308059c 0.39631673 0.162484111 0.792349877 0.266804156 1.133253433 0.315596609c 0.340903556 0.048792453 0.661208494 0.036133352 0.912167904 -0.02284189c 0.25095941 -0.058975242 0.453236898 -0.187044945 0.593588556 -0.331009562c 0.140351658 -0.143964617 0.221579021 -0.341752301 0.248521394 -0.532778139c 0.026942372 -0.191025838 -0.01182011 -0.418296911 -0.086867159 -0.61337689c -0.075047049 -0.195079979 -0.212573629 -0.402767948 -0.363415134 -0.557102982c -0.150841504 -0.154335033 -0.351766356 -0.295042966 -0.541633891 -0.368907219c -0.189867535 -0.073864253 -0.410204436 -0.109209928 -0.597571319 -0.0742783c -0.187366883 0.034931627 -0.382156592 0.127328505 -0.526629979 0.283868065c -0.144473387 0.15653956 -0.272345286 0.381720743 -0.340210342 0.655369293c -0.067865056 0.273648551 -0.097875586 0.617275574 -0.066979994 0.986522012c 0.030895592 0.369246439 0.104876792 0.800966254 0.252353544 1.228956619c 0.147476752 0.427990364 0.365568326 0.921353905 0.632506969 1.338985567c 0.266938643 0.417631662 0.637436148 0.84847238 0.969124887 1.166804405c 0.331688739 0.318332025 0.71460963 0.573029305 1.021007547 0.743187743c 0.306397916 0.170158438 0.599181632 0.236334974 0.817379951 0.277762887c 0.21819832 0.041427913 0.377832782 -0.007268951 0.491809966 -0.029195411c 0.113977184 -0.02192646 0.149851161 -0.094431054 0.192053136 -0.102363351c 0.042201975 -0.007932298 0.030180873 -0.001535925 0.061158716 0.054769566c 0.030977842 0.056305491 0.098257611 0.226222955 0.124708338 0.283063379c 0.026450727 0.056840424 0.022664017 0.038652777 0.033996026 0.057979165"/><path fill="none" transform="translate(175.786637081 41.81958781)" d="M 0 0h 4.4176v 7.8144h -4.4176v -7.8144Z "/><g transform="translate(175.786637059 41.819587744)"><g transform="matrix(1 0 0 -1 0 6.0104)"><use xlink:href="#g609FDE6BC0108B2C23F5DEDEBD84C157" x="0" y="0" fill="#f8effa" fill-rule="nonzero"/></g></g><path fill="none" stroke="#ead9f0" stroke-width="0.55" stroke-linecap="round" stroke-linejoin="miter" stroke-miterlimit="4" transform="translate(257.846315095 94.169734141)" d="M 0 0c 13.862115481 1.675e-6 27.724230963 3.141e-6 41.586346444 4.398e-6"/><path fill="none" stroke="#d8b9e3" stroke-width="0.55" stroke-linecap="round" stroke-linejoin="miter" stroke-miterlimit="4" transform="translate(214.966755286 94.169728293)" d="M 0 0c 13.537058498 2.057e-6 27.074116996 3.914e-6 40.611175494 5.572e-6"/><path fill="#f8effa" fill-rule="nonzero" stroke="#f8effa" stroke-width="0.2" stroke-linecap="butt" stroke-linejoin="miter" stroke-miterlimit="4" transform="translate(255.577930586 92.575245675)" d="M 0 0m 4.251968699 1.594488708l -4.251968699 1.59448767l 3.89e-7 -3.188976378l 4.251968309 1.594488708Z "/><path fill="none" transform="translate(255.452711732 118.836134141)" d="M 0 0h 4.7872v 6.1072h -4.7872v -6.1072Z "/><g transform="translate(255.45271171 118.836134119)"><g transform="matrix(1 0 0 -1 0 6.0104)"><use xlink:href="#g4D60E008065C2368689AAEF64DBA1131" x="0" y="0" fill="#f8effa" fill-rule="nonzero"/></g></g><path fill="none" stroke="#f8effa" stroke-width="1" stroke-linecap="butt" stroke-linejoin="miter" stroke-miterlimit="4" transform="translate(52.333376614 92.05770866)" d="M 0 0m 2.112 0c -1.165367808 0 -2.112 0.946632192 -2.112 2.112c 0 1.165367808 0.946632192 2.112 2.112 2.112c 1.165367808 0 2.112 -0.946632192 2.112 -2.112c 0 -1.165367808 -0.946632192 -2.112 -2.112 -2.112Z "/><path fill="none" stroke="#f8effa" stroke-width="1" stroke-linecap="butt" stroke-linejoin="miter" stroke-miterlimit="4" transform="translate(141.024772451 92.05771835)" d="M 0 0m 2.112 0c -1.165367808 0 -2.112 0.946632192 -2.112 2.112c 0 1.165367808 0.946632192 2.112 2.112 2.112c 1.165367808 0 2.112 -0.946632192 2.112 -2.112c 0 -1.165367808 -0.946632192 -2.112 -2.112 -2.112Z "/><path fill="none" stroke="#f8effa" stroke-width="1" stroke-linecap="butt" stroke-linejoin="miter" stroke-miterlimit="4" transform="translate(210.742009512 92.05772797)" d="M 0 0m 2.112 0c -1.165367808 0 -2.112 0.946632192 -2.112 2.112c 0 1.165367808 0.946632192 2.112 2.112 2.112c 1.165367808 0 2.112 -0.946632192 2.112 -2.112c 0 -1.165367808 -0.946632192 -2.112 -2.112 -2.112Z "/><path fill="none" stroke="#f8effa" stroke-width="1" stroke-linecap="butt" stroke-linejoin="miter" stroke-miterlimit="4" transform="translate(299.433405394 92.057738729)" d="M 0 0m 2.112 0c -1.165367808 0 -2.112 0.946632192 -2.112 2.112c 0 1.165367808 0.946632192 2.112 2.112 2.112c 1.165367808 0 2.112 -0.946632192 2.112 -2.112c 0 -1.165367808 -0.946632192 -2.112 -2.112 -2.112Z "/></g><defs><symbol id="gE20CEABBE92D7595B5B93F60B429776C" overflow="visible"><path d="M 0 0m 4.6112 3.3264c 0.1144 0.22 0.1672 0.3344 0.1672 0.3432c 0 0.0792 -0.044 0.1232 -0.1408 0.1232c -0.0616 0 -0.1056 -0.0264 -0.132 -0.0792c -0.308 -0.572 -0.6688 -1.3816 -1.0912 -2.4288c -0.0352 0.5808 -0.1496 1.1264 -0.3432 1.628c -0.2552 0.6512 -0.6512 0.9768 -1.188 0.9768c -0.5544 0 -1.0384 -0.3696 -1.2848 -0.7128c -0.2904 -0.4136 -0.44 -0.7216 -0.44 -0.9152c 0 -0.0792 0.0704 -0.1232 0.22 -0.1232l 0.044 0.0616c 0.1496 0.4576 0.4048 0.748 0.7656 0.8712c 0.2464 0.0792 0.44 0.1232 0.5808 0.1232c 0.9152 0 1.3728 -0.7216 1.3728 -2.1736c 0 -0.3432 -0.0352 -0.6248 -0.1056 -0.8448c -0.2992 -0.9768 -0.4488 -1.6016 -0.4488 -1.8744c 0 -0.132 0.0528 -0.1936 0.1496 -0.1936c 0.1056 0 0.2112 0.1848 0.308 0.5456c 0.1496 0.5632 0.2552 1.0648 0.3168 1.5048c 0.0264 0.132 0.044 0.2464 0.0704 0.3256c 0.3168 0.9856 0.7128 1.936 1.1792 2.8424Z "/></symbol><symbol id="g48079E78CDA4DD5843668BC65E75D340" overflow="visible"><path d="M 0 0m 2.7984 -2.1824c 0.0792 0 0.1232 0.044 0.1232 0.1232c 0 0.0264 -0.0176 0.0616 -0.044 0.0968c -0.4576 0.352 -0.8272 0.9328 -1.1 1.7336c -0.2376 0.6952 -0.3608 1.3816 -0.3608 2.0592v 0.7392c 0 0.6776 0.1232 1.364 0.3608 2.0592c 0.2728 0.8008 0.6424 1.3816 1.1 1.7336c 0.0264 0.0264 0.044 0.0616 0.044 0.0968c 0 0.0792 -0.044 0.1232 -0.1232 0.1232c -0.0088 0 -0.0352 -0.0088 -0.0616 -0.0264c -0.528 -0.4048 -0.968 -1.0032 -1.3288 -1.804c -0.3432 -0.7656 -0.5192 -1.4872 -0.5192 -2.1824v -0.7392c 0 -0.6952 0.176 -1.4168 0.5192 -2.1824c 0.3608 -0.8008 0.8008 -1.3992 1.3288 -1.804c 0.0264 -0.0176 0.0528 -0.0264 0.0616 -0.0264Z "/></symbol><symbol id="gB356A27A1372735628A82BDFEE9793AB" overflow="visible"><path d="M 0 0m 3.124 3.8896c -0.3872 0 -0.7568 -0.2024 -1.1176 -0.6072c -0.0968 0.4048 -0.3696 0.6072 -0.8008 0.6072c -0.3608 0 -0.6248 -0.2904 -0.8096 -0.8624c -0.088 -0.2904 -0.132 -0.4576 -0.132 -0.5104c 0 -0.0792 0.044 -0.1232 0.1408 -0.1232c 0.044 0 0.0704 0.0088 0.0968 0.0264c 0.044 0.0792 0.0704 0.1408 0.0792 0.2024c 0.1584 0.6688 0.3608 1.0032 0.5984 1.0032c 0.1584 0 0.2376 -0.1232 0.2376 -0.3608c 0 -0.132 -0.0176 -0.2816 -0.0616 -0.44l -0.968 -3.8632c -0.0792 -0.2904 -0.088 -0.3256 -0.4312 -0.3256c -0.1584 0 -0.2376 -0.0704 -0.2376 -0.2024c 0 -0.0968 0.0528 -0.1408 0.1496 -0.1408c 0.132 0 0.5896 0.0264 0.7216 0.0264c 0.1672 0 0.6952 -0.0264 0.8624 -0.0264c 0.132 0 0.1936 0.0704 0.1936 0.2112c 0 0.088 -0.0792 0.132 -0.2464 0.132c -0.1584 0 -0.396 -0.0088 -0.396 0.0968c 0 0.1144 0.3608 1.496 0.396 1.6456c 0.176 -0.3256 0.44 -0.4928 0.792 -0.4928c 0.572 0 1.0736 0.2904 1.5136 0.88c 0.4048 0.5368 0.6072 1.1088 0.6072 1.6984c 0 0.7656 -0.4576 1.4256 -1.188 1.4256Z m -0.0264 -0.264c 0.3432 0 0.5192 -0.264 0.5192 -0.7832c 0 -0.2376 -0.0528 -0.5544 -0.1496 -0.9504c -0.2024 -0.7656 -0.4576 -1.2672 -0.7656 -1.5224c -0.1848 -0.1496 -0.352 -0.2288 -0.5192 -0.2288c -0.2552 0 -0.4312 0.1144 -0.528 0.352c -0.0792 0.1848 -0.1232 0.3168 -0.1232 0.3872l 0.4488 1.8392c 0.044 0.1936 0.2024 0.396 0.4488 0.5984c 0.2464 0.2024 0.4664 0.308 0.6688 0.308Z "/></symbol><symbol id="g6628AF3310CEA24A07929B1F774CF236" overflow="visible"><path d="M 0 0m 3.17856 1.96504c 0 0.69608 -0.1232 1.22584 -0.36344 1.58928c -0.19712 0.308 -0.59136 0.53592 -1.06568 0.53592c -0.19712 0 -0.37576 -0.0308 -0.52976 -0.09856c -0.6776 -0.28336 -0.89936 -1.07184 -0.89936 -2.02664c 0 -0.20944 0.01232 -0.40656 0.0308 -0.59752c 0.10472 -0.80696 0.48048 -1.49072 1.39832 -1.49072c 0.19712 0 0.37576 0.0308 0.52976 0.09856c 0.6776 0.2772 0.89936 1.0472 0.89936 1.98968Z m -0.70224 1.36752c 0.06776 -0.22792 0.10472 -0.65296 0.10472 -1.28744c 0 -0.60368 -0.02464 -1.02872 -0.08008 -1.28128c -0.07392 -0.36344 -0.33264 -0.66528 -0.75152 -0.66528c -0.154 0 -0.308 0.04928 -0.44968 0.154c -0.19096 0.14168 -0.308 0.41888 -0.35728 0.84392c -0.01848 0.14168 -0.02464 0.45584 -0.02464 0.94864c 0 0.59752 0.0308 1.01024 0.0924 1.232c 0.10472 0.39424 0.35112 0.59136 0.7392 0.59136c 0.3696 0 0.64064 -0.24024 0.72688 -0.53592Z "/></symbol><symbol id="gC0387D0D83D6AF7EECBCF56D149D8BE6" overflow="visible"><path d="M 0 0m 0.6864 -2.156c 0.528 0.4048 0.968 1.0032 1.3288 1.804c 0.3432 0.7656 0.5192 1.4872 0.5192 2.1824v 0.7392c 0 0.6952 -0.176 1.4168 -0.5192 2.1824c -0.3608 0.8008 -0.8008 1.3992 -1.3288 1.804c -0.0264 0.0176 -0.0528 0.0264 -0.0616 0.0264c -0.0792 0 -0.1232 -0.044 -0.1232 -0.1232c 0 -0.0352 0.0176 -0.0704 0.044 -0.0968c 0.4576 -0.352 0.8272 -0.9328 1.1 -1.7336c 0.2376 -0.6952 0.3608 -1.3816 0.3608 -2.0592v -0.7392c 0 -0.6776 -0.1232 -1.364 -0.3608 -2.0592c -0.2728 -0.8008 -0.6424 -1.3816 -1.1 -1.7336c -0.0264 -0.0352 -0.044 -0.0704 -0.044 -0.0968c 0 -0.0792 0.044 -0.1232 0.1232 -0.1232c 0.0088 0 0.0352 0.0088 0.0616 0.0264Z "/></symbol><symbol id="g4D60E008065C2368689AAEF64DBA1131" overflow="visible"><path d="M 0 0m 3.7752 5.5616l -0.5192 -2.1384c -0.1848 0.3256 -0.44 0.4928 -0.7832 0.4928c -0.572 0 -1.0736 -0.2904 -1.5136 -0.88c -0.4048 -0.5456 -0.6072 -1.1176 -0.6072 -1.7072c 0 -0.7744 0.4488 -1.4256 1.188 -1.4256c 0.3784 0 0.748 0.2024 1.1 0.616c 0.0968 -0.3344 0.396 -0.616 0.8096 -0.616c 0.6072 0 0.8008 0.7216 0.9328 1.3728c 0 0.0792 -0.044 0.1232 -0.132 0.1232c -0.0792 0 -0.132 -0.0616 -0.1584 -0.1848c -0.176 -0.6952 -0.3872 -1.0472 -0.6248 -1.0472c -0.1496 0 -0.2288 0.1232 -0.2288 0.3608c 0 0.132 0.0176 0.2728 0.0528 0.4136l 1.2496 5.0336v 0.0352c -0.0264 0.0616 -0.0792 0.0968 -0.1496 0.0968c -0.2024 0 -0.572 -0.0352 -1.1 -0.0968c -0.0968 -0.0088 -0.1496 -0.0792 -0.1496 -0.2024c 0 -0.088 0.0792 -0.132 0.2376 -0.132c 0.1672 0 0.396 0.0088 0.396 -0.1144Z m -0.7744 -2.2528c 0.088 -0.1848 0.132 -0.308 0.132 -0.3872c -0.0088 -0.0352 -0.0176 -0.0792 -0.0264 -0.1408l -0.4312 -1.7072c -0.0264 -0.0968 -0.088 -0.2024 -0.1672 -0.308c -0.3256 -0.396 -0.6424 -0.5984 -0.9504 -0.5984c -0.3432 0 -0.5192 0.264 -0.5192 0.7832c 0 0.2112 0.0528 0.528 0.1584 0.9504c 0.1848 0.748 0.4488 1.2584 0.7744 1.5312c 0.176 0.1496 0.3432 0.22 0.5104 0.22c 0.2376 0 0.4136 -0.1144 0.5192 -0.3432Z "/></symbol><symbol id="gA929DB0B2C612CCF04FAE9F980D3EB7F" overflow="visible"><path d="M 0 0m 1.86648 4.09024c -0.26488 -0.25872 -0.65912 -0.38808 -1.19504 -0.38808v -0.27104c 0.36344 0 0.65296 0.05544 0.87472 0.16016v -3.06768c 0 -0.08008 -0.00616 -0.12936 -0.02464 -0.154c -0.0308 -0.06776 -0.2156 -0.10472 -0.5544 -0.10472h -0.25256v -0.26488l 1.09648 0.02464l 1.10264 -0.02464v 0.26488h -0.25256c -0.3388 0 -0.5236 0.03696 -0.56056 0.10472c -0.01232 0.02464 -0.01848 0.07392 -0.01848 0.154v 3.36952c 0 0.16632 -0.02464 0.19712 -0.2156 0.19712Z "/></symbol><symbol id="gD835EBEC661838FE8BAD863F1C15EA0F" overflow="visible"><path d="M 0 0m 0.73304 2.61184c 0.19712 0 0.34496 0.14784 0.34496 0.34496c 0 0.22176 -0.11704 0.3388 -0.34496 0.34496c 0.13552 0.28952 0.44352 0.5236 0.84392 0.5236c 0.54208 0 0.89936 -0.40656 0.89936 -0.94864c 0 -0.29568 -0.10472 -0.57904 -0.32032 -0.85624c -0.10472 -0.14168 -0.1848 -0.24024 -0.24024 -0.29568l -1.45992 -1.4476c -0.08008 -0.07392 -0.06776 -0.0924 -0.06776 -0.2772h 2.53792l 0.19096 1.15808h -0.25872c -0.04312 -0.32648 -0.0924 -0.51744 -0.14784 -0.56056c -0.0308 -0.01848 -0.22176 -0.0308 -0.5852 -0.0308h -1.0472c 0.41272 0.36344 0.79464 0.68992 1.15808 0.97944c 0.2772 0.2156 0.47432 0.40656 0.59752 0.57288c 0.1848 0.24024 0.2772 0.4928 0.2772 0.75768c 0 0.38192 -0.14784 0.68376 -0.44968 0.90552c -0.26488 0.20328 -0.59752 0.308 -0.99176 0.308c -0.3388 0 -0.62832 -0.09856 -0.88088 -0.29568c -0.26488 -0.2156 -0.4004 -0.48664 -0.4004 -0.81928c 0 -0.20944 0.154 -0.36344 0.34496 -0.36344Z "/></symbol><symbol id="gA29CEF53201F8F6F080645222598278A" overflow="visible"><path d="M 0 0m 2.17448 2.17448c 0.41272 0.16632 0.80696 0.52976 0.80696 1.05336c 0 0.2772 -0.14784 0.49896 -0.43736 0.65912c -0.24024 0.13552 -0.51128 0.20328 -0.81312 0.20328c -0.30184 0 -0.56672 -0.0616 -0.79464 -0.19096c -0.2772 -0.154 -0.41888 -0.3696 -0.41888 -0.6468c 0 -0.23408 0.11704 -0.35112 0.34496 -0.35112c 0.19096 0 0.33264 0.14784 0.33264 0.3388c 0 0.19096 -0.09856 0.30184 -0.28952 0.33264c 0.17864 0.19096 0.44352 0.28952 0.80696 0.28952c 0.4004 0 0.62832 -0.24024 0.62832 -0.63448c 0 -0.28952 -0.08008 -0.5236 -0.23408 -0.7084c -0.17248 -0.20328 -0.29568 -0.23408 -0.65296 -0.25872c -0.16632 -0.01232 -0.2772 0.00616 -0.2772 -0.11704c 0 -0.07392 0.0616 -0.11088 0.17864 -0.11088h 0.32648c 0.52976 0 0.78848 -0.4004 0.78848 -0.9548c 0 -0.54208 -0.2464 -0.9548 -0.76384 -0.9548c -0.44968 0 -0.77616 0.1232 -0.97944 0.37576c 0.2156 0.02464 0.32648 0.14784 0.32648 0.36344c 0 0.20328 -0.154 0.35728 -0.35728 0.35728c -0.24024 0 -0.36344 -0.1232 -0.36344 -0.37576c 0 -0.31416 0.16016 -0.56672 0.47432 -0.74536c 0.26488 -0.14784 0.56672 -0.22176 0.91168 -0.22176c 0.37576 0 0.70224 0.10472 0.9856 0.31416c 0.308 0.22792 0.462 0.5236 0.462 0.88704c 0 0.57288 -0.49896 0.96712 -0.99176 1.09648Z "/></symbol><symbol id="g609FDE6BC0108B2C23F5DEDEBD84C157" overflow="visible"><path d="M 0 0m 0.132 -1.2408c 0 -0.3784 0.396 -0.5632 1.188 -0.5632c 0.4136 0 0.8008 0.1056 1.144 0.308c 0.3872 0.2288 0.6248 0.5368 0.7216 0.9152l 0.9592 3.8632c 0.0176 0.088 0.0264 0.1408 0.0264 0.1672c 0 0.176 -0.0968 0.264 -0.2816 0.264c -0.1936 0 -0.3168 -0.1056 -0.3784 -0.308c -0.1936 0.3256 -0.4576 0.484 -0.7832 0.484c -0.5632 0 -1.0648 -0.2816 -1.496 -0.8448c -0.396 -0.528 -0.5984 -1.0824 -0.5984 -1.6544c 0 -0.7656 0.4488 -1.4168 1.188 -1.4168c 0.3432 0 0.66 0.1496 0.9504 0.44l -0.264 -1.0384c -0.2552 -0.6072 -0.6512 -0.9152 -1.2056 -0.9152c -0.2288 0 -0.4224 0.0176 -0.5808 0.0528c 0.1848 0.0968 0.2728 0.2464 0.2728 0.4488c 0 0.22 -0.1232 0.3344 -0.3608 0.3344c -0.2816 0 -0.5016 -0.2552 -0.5016 -0.5368Z m 3.0008 4.6904c 0.176 -0.1848 0.264 -0.3608 0.264 -0.5368c 0 -0.0088 -0.0088 -0.0528 -0.0264 -0.1144l -0.4136 -1.6632c -0.0528 -0.2024 -0.2024 -0.4136 -0.44 -0.6072c -0.2376 -0.1936 -0.4664 -0.2904 -0.6688 -0.2904c -0.352 0 -0.528 0.2552 -0.528 0.7656c 0 0.484 0.2992 1.5576 0.4752 1.8744c 0.2728 0.5016 0.5808 0.748 0.9416 0.748c 0.1584 0 0.2904 -0.0616 0.396 -0.176Z "/></symbol></defs></svg>