<svg viewBox="0 0 459.185351432 183.090376453" width="459.185351432pt" height="183.090376453pt" xmlns="http://www.w3.org/2000/svg" xmlns:xlink="http://www.w3.org/1999/xlink" xmlns:h5="http://www.w3.org/1999/xhtml"><g transform="translate(5.669291339 5.669291339)"><path fill="none" stroke="#948899" stroke-width="1" stroke-linecap="round" stroke-linejoin="miter" stroke-miterlimit="4" transform="translate(13.837304211 15.051541952)" d="M 0 0c 0.349623494 0.023058366 0.719417482 0.036240123 1.048870481 0.069175098c 0.329452999 0.032934975 0.654661274 0.065254196 0.927847516 0.128434754c 0.273186242 0.063180558 0.521627394 0.141000955 0.711269935 0.250648594c 0.189642541 0.10964764 0.334326329 0.240678417 0.426585309 0.407237244c 0.092258979 0.166558826 0.13299554 0.370274823 0.126968568 0.592115713c -0.006026973 0.22184089 -0.072500117 0.472534619 -0.163130405 0.738929627c -0.090630288 0.266395008 -0.234148201 0.562088666 -0.380651324 0.859440422c -0.146503122 0.297351757 -0.332246878 0.616443248 -0.498367411 0.924670117c -0.166120533 0.308226869 -0.351860421 0.627325343 -0.498355789 0.924691099c -0.146495368 0.297365756 -0.290001665 0.593080383 -0.38061642 0.859503435c -0.090614754 0.266423052 -0.156086772 0.518924155 -0.163072106 0.739034877c -0.006985334 0.220110722 0.029498305 0.416148749 0.1211601 0.581629455c 0.091661795 0.165480706 0.238501392 0.30040345 0.428810673 0.411254782c 0.190309281 0.110851332 0.439105244 0.189312283 0.713045011 0.25385321c 0.273939767 0.064540927 0.600771432 0.099790919 0.93059359 0.133392351c 0.329822158 0.033601431 0.698889545 0.045471428 1.048339356 0.068216237c 0.349449811 0.02274481 0.71852391 0.034626922 1.04835951 0.068252622c 0.3298356 0.033625699 0.656687412 0.068912064 0.93065409 0.133501574c 0.273966677 0.06458951 0.522796263 0.14311116 0.713145974 0.254035483c 0.190349711 0.110924323 0.337252446 0.245961053 0.428952294 0.411510456c 0.091699848 0.165549403 0.128364656 0.361914502 0.121246792 0.581785964c -0.007117863 0.219871462 -0.073061778 0.471520629 -0.163953971 0.73744281c -0.090892193 0.26592218 -0.234659177 0.56116618 -0.381399188 0.858090272c -0.146740011 0.296924092 -0.332708032 0.615610708 -0.499040878 0.92345428c -0.166332847 0.307843572 -0.352092583 0.626906212 -0.498956201 0.923607151c -0.146863619 0.296700938 -0.291350405 0.590645449 -0.382225511 0.856598479c -0.090875105 0.26595303 -0.156138441 0.518830874 -0.163025121 0.739119701c -0.00688668 0.220288827 0.029938513 0.416943474 0.121705042 0.58261326c 0.091766529 0.165669785 0.238557131 0.300504078 0.42889413 0.411405451c 0.190336999 0.110901373 0.439564681 0.190141724 0.713127864 0.254002788c 0.273563182 0.063861064 0.598964649 0.096529061 0.92825123 0.129163596c 0.329286582 0.032634535 0.698331522 0.044464006 1.04746826 0.066643612c 0.349136738 0.022179606 0.717875324 0.033456004 1.047352167 0.066434024c 0.329476842 0.03297802 0.655947195 0.067575721 0.929508887 0.131434094c 0.273561692 0.063858373 0.521963322 0.141607418 0.711861264 0.251716145c 0.189897943 0.110108727 0.336309687 0.244259053 0.427526392 0.408936219c 0.091216705 0.164677166 0.1257624 0.357216546 0.119773837 0.579126778c -0.005988564 0.221910231 -0.066304269 0.48372023 -0.15570522 0.752334611c -0.089400951 0.26861438 -0.234179585 0.562032007 -0.380700484 0.859351671c -0.146520899 0.297319664 -0.332283688 0.616376793 -0.498424909 0.924566314c -0.166141221 0.308189522 -0.351895481 0.627262048 -0.498422415 0.924570817c -0.146526934 0.297308769 -0.290069815 0.592957351 -0.380739189 0.859281796c -0.090669374 0.266324445 -0.156221956 0.518680101 -0.163277056 0.738664872c -0.0070551 0.219984771 0.029357555 0.415894648 0.120946454 0.581243752c 0.091588899 0.165349103 0.238354155 0.300137637 0.42858694 0.410850869c 0.190232786 0.110713233 0.438950578 0.189033058 0.712809773 0.253428526c 0.273859196 0.064395469 0.600608377 0.09949655 0.930345401 0.132944285c 0.329737024 0.033447736 0.698717124 0.045160148 1.048076742 0.067742129c 0.349359618 0.022581981 0.718341125 0.034296933 1.048080968 0.067749758c 0.329739843 0.033452825 0.656493248 0.068561532 0.930358089 0.132967193c 0.273864841 0.064405661 0.522589685 0.142738217 0.712830957 0.25346677c 0.190241272 0.110728553 0.337016425 0.245534956 0.428616673 0.410904547c 0.091600247 0.165369591 0.128025672 0.361302522 0.120984811 0.581312998c -0.007040861 0.220010477 -0.072565295 0.47241695 -0.163229979 0.738749863c -0.090664683 0.266332913 -0.234218015 0.561962628 -0.380758121 0.859247616c -0.146540106 0.297284989 -0.332322044 0.616307546 -0.498482515 0.924462315c -0.166160471 0.308154768 -0.351941676 0.62717865 -0.49848031 0.924466295c -0.146538634 0.297287646 -0.290089763 0.592921338 -0.380751496 0.859259578c -0.090661733 0.26633824 -0.156182483 0.518751363 -0.163218901 0.738769862c -0.007036418 0.220018499 0.029394189 0.415960784 0.121000393 0.58134113c 0.091606204 0.165380345 0.238389896 0.300202162 0.428636833 0.410940943c 0.190246937 0.110738781 0.438977474 0.189081615 0.71284479 0.253491743c 0.273867316 0.064410128 0.59958503 0.097649061 0.930359104 0.132969024c 0.330774073 0.035319963 0.704229107 0.055111151 1.054285337 0.078950753c 0.35005623 0.023839602 0.716918113 0.031727913 1.046052044 0.06408686c 0.329133931 0.032358948 0.655352311 0.066501752 0.92875154 0.130066825c 0.273399229 0.063565073 0.521728865 0.141184145 0.711643836 0.251323614c 0.189914971 0.110139469 0.336433736 0.244483003 0.427845989 0.4095132c 0.091412253 0.165030197 0.127747404 0.360800152 0.120627528 0.580667981c -0.007119876 0.219867829 -0.072582495 0.472385898 -0.163346781 0.738538994c -0.090764286 0.266153097 -0.234468575 0.561510281 -0.381238934 0.858379585c -0.146770359 0.296869304 -0.332852021 0.615350759 -0.49938322 0.922836237c -0.166531199 0.307485478 -0.352753118 0.625713722 -0.499803974 0.922076632c -0.147050857 0.29636291 -0.291184704 0.590944596 -0.382501165 0.85610083c -0.09131646 0.265156234 -0.159136287 0.513418743 -0.165397597 0.734836574c -0.00626131 0.221417832 0.035089957 0.426243583 0.127829736 0.593670415c 0.092739779 0.167426832 0.238364873 0.300156986 0.428608935 0.410890578c 0.190244063 0.110733592 0.438982051 0.189089878 0.712855442 0.253510973c 0.27387339 0.064421095 0.600635714 0.099545903 0.930384901 0.133015596c 0.329749187 0.033469694 0.698740425 0.045202215 1.048110219 0.067802567c 0.349369794 0.022600352 0.718360477 0.03433187 1.048108547 0.067799547c 0.32974807 0.033467678 0.656508722 0.068589469 0.930379872 0.133006518c 0.27387115 0.06441705 0.52260134 0.142759258 0.712847026 0.25349578c 0.190245686 0.110736522 0.337024305 0.245549181 0.428627088 0.41092335c 0.091602783 0.165374169 0.128029806 0.361309984 0.120989612 0.581321666c -0.007040193 0.220011682 -0.072564892 0.472417678 -0.163230773 0.738748428c -0.090665881 0.26633075 -0.23422134 0.561956625 -0.380764515 0.859236074c -0.146543174 0.297279449 -0.332329111 0.616294789 -0.498494532 0.924440621c -0.166165421 0.308145831 -0.35195251 0.627159091 -0.498497995 0.924434368c -0.146545485 0.297275277 -0.290104406 0.592894902 -0.380774916 0.859217296c -0.09067051 0.266322394 -0.15620099 0.518717952 -0.163248144 0.738717068c -0.007047154 0.219999116 0.029371749 0.415920273 0.120965218 0.581277627c 0.091593469 0.165357354 0.238361607 0.300151091 0.428595596 0.410866497c 0.190233989 0.110715406 0.438951304 0.18903437 0.71280834 0.253425939c 0.273857036 0.06439157 0.60060238 0.099485723 0.930333875 0.132923479c 0.329731496 0.033437756 0.698704389 0.045137158 1.0480551 0.067703058c 0.34935071 0.022565899 0.718303304 0.034228653 1.048049162 0.067692338c 0.329745859 0.033463686 0.656537523 0.068641464 0.93042599 0.133089776c 0.273888466 0.064448312 0.522639894 0.142828862 0.712904808 0.253600095c 0.190264913 0.110771234 0.337062673 0.245618448 0.428684671 0.411027306c 0.091621998 0.165408858 0.126885892 0.35924483 0.121047318 0.581425844c -0.005838574 0.222181015 -0.066408769 0.483531573 -0.156078761 0.751660243c -0.089669992 0.26812867 -0.2350259 0.560504121 -0.381941188 0.857111778c -0.146915289 0.296607657 -0.333053211 0.614987542 -0.499550543 0.922534162c -0.166497332 0.30754662 -0.352596222 0.625996972 -0.499433447 0.92274556c -0.146837225 0.296748588 -0.290667793 0.591877796 -0.381589903 0.857745967c -0.09092211 0.265868171 -0.156684113 0.51784575 -0.163942755 0.73746306c -0.007258642 0.219617309 0.029201779 0.415613418 0.120390905 0.580240797c 0.091189127 0.164627379 0.236765995 0.297270469 0.426743855 0.407523474c 0.18997786 0.110253005 0.439394312 0.189834149 0.713123305 0.253994558c 0.273728993 0.064160409 0.599344166 0.09721422 0.929250653 0.130967894c 0.329906487 0.033753674 0.700440484 0.048271399 1.050188267 0.07155415c 0.349747783 0.023282751 0.718794282 0.035115035 1.048298433 0.068142356c 0.329504151 0.03302732 0.655214104 0.066252242 0.928726471 0.130021567c 0.273512367 0.063769324 0.522282232 0.14218316 0.712347729 0.252594379c 0.190065497 0.110411219 0.336650209 0.24487381 0.428045252 0.409872938c 0.091395043 0.164999128 0.1275624 0.360466157 0.120325008 0.580121829c -0.007237392 0.219655671 -0.073055609 0.471531766 -0.163749362 0.7378122c -0.090693752 0.266280434 -0.233983473 0.562386056 -0.380413153 0.859870401c -0.14642968 0.297484345 -0.332106016 0.616697551 -0.498164928 0.925035668c -0.166058911 0.308338118 -0.351743112 0.627537125 -0.498188541 0.924993038c -0.146445429 0.297455913 -0.289907647 0.593250119 -0.380484033 0.859742439c -0.090576386 0.26649232 -0.156015832 0.519052226 -0.162974281 0.739211483c -0.00695845 0.220159258 0.029546326 0.416235444 0.121223583 0.581744063c 0.091677257 0.165508619 0.238526604 0.300448966 0.428839957 0.411307651c 0.190313353 0.110858685 0.439107703 0.189316722 0.713040164 0.253844459c 0.27393246 0.064527737 0.600751144 0.099754292 0.930554599 0.13332196c 0.329803456 0.033567668 0.698846464 0.045393651 1.048266135 0.068084048c 0.349419671 0.022690397 0.718457938 0.03450782 1.048251892 0.068058335c 0.329793954 0.033550514 0.656598401 0.068751368 0.930511832 0.133244751c 0.273913432 0.064493383 0.522684011 0.142908507 0.712968757 0.253715547c 0.190284746 0.11080704 0.337100726 0.245687147 0.428739721 0.41112669c 0.091638995 0.165439543 0.128100717 0.361438002 0.121094248 0.58151057c -0.007006468 0.220072568 -0.073372052 0.470960479 -0.163133058 0.738924837c -0.089761006 0.267964358 -0.229462148 0.570548584 -0.375432978 0.868861311c -0.145970829 0.298312727 -0.333672351 0.613869783 -0.500391998 0.921015048c -0.166719647 0.307145266 -0.352810517 0.625610096 -0.499925883 0.921856545c -0.147115366 0.296246449 -0.590006438 0.785548716 -0.382766312 0.855622149c 0.207240126 0.070073433 1.084138045 -0.290121033 1.626207068 -0.43518155"/><path fill="none" transform="translate(6.6 6.6)" d="M 0 0h 5.71v 8.98h -5.71v -8.98Z "/><g transform="translate(6.599999968 6.599999953)"><g transform="matrix(1 0 0 -1 0 6.83)"><use xlink:href="#gB51309CEEA1D83C815FD51E59C292E6A" x="0" y="0" fill="#3d2645" fill-rule="nonzero"/></g></g><path fill="none" stroke="#b09dbc" stroke-width="1" stroke-linecap="round" stroke-linejoin="miter" stroke-miterlimit="4" transform="translate(13.837304211 88.495180272)" d="M 0 0m 0 68.828889841c 12.707659785 -22.94296328 25.415319569 -45.885926561 38.122979354 -68.828889841"/><path fill="#3d2645" fill-rule="nonzero" stroke="#3d2645" stroke-width="0.3" stroke-linecap="butt" stroke-linejoin="miter" stroke-miterlimit="4" transform="translate(29.503917006 120.305953381)" d="M 0 0m 4.836999906 0l -0.931492188 6.288935891l -3.905507718 -2.163184535l 4.836999906 -4.125751356Z "/><path fill="none" transform="translate(7.108727779 158.029434886)" d="M 0 0h 5.44v 6.94h -5.44v -6.94Z "/><g transform="translate(7.108727777 158.029434809)"><g transform="matrix(1 0 0 -1 0 6.83)"><use xlink:href="#gAE9FF52A1D42223AC1C1C189F82D6586" x="0" y="0" fill="#3d2645" fill-rule="nonzero"/></g></g><path fill="none" stroke="#3d2645" stroke-width="1" stroke-linecap="round" stroke-linejoin="miter" stroke-miterlimit="4" transform="translate(394.861361579 15.183276883)" d="M 0 0m 1.045942476 68.811517252c -0.165798435 -0.308673216 -0.350664551 -0.629213185 -0.497395306 -0.926019648c -0.146730755 -0.296806463 -0.291733311 -0.589687348 -0.382989224 -0.854819132c -0.091255914 -0.265131785 -0.156980179 -0.51704316 -0.164546257 -0.735971577c -0.007566079 -0.218928417 0.026833292 -0.411071968 0.119149786 -0.577598925c 0.092316493 -0.166526957 0.243453064 -0.309066133 0.434749174 -0.421562818c 0.191296111 -0.112496684 0.439101819 -0.189036571 0.713027489 -0.253417289c 0.27392567 -0.064380717 0.600731851 -0.099449947 0.930526532 -0.132867016c 0.329794681 -0.033417069 0.698825764 -0.04508677 1.048241554 -0.067635399c 0.34941579 -0.022548629 0.718450743 -0.034225311 1.048253183 -0.067656376c 0.32980244 -0.033431066 0.656620244 -0.068521261 0.930561457 -0.132930017c 0.273941214 -0.064408756 0.522748674 -0.142755674 0.713085825 -0.253522519c 0.190337151 -0.110766845 0.337218142 -0.24562951 0.428937079 -0.411078552c 0.091718937 -0.165449042 0.128275463 -0.361483821 0.121376541 -0.581615702c -0.006898922 -0.220131881 -0.072268154 -0.47268369 -0.162770072 -0.739175585c -0.090501918 -0.266491895 -0.23388007 -0.562302991 -0.380241437 -0.859775784c -0.146361366 -0.297472793 -0.331954535 -0.616701252 -0.497926761 -0.925060973c -0.165972226 -0.308359721 -0.351558679 -0.627600294 -0.497906594 -0.925097351c -0.146347915 -0.297497056 -0.289705908 -0.593344519 -0.380180898 -0.859884987c -0.090474991 -0.266540468 -0.155810579 -0.519152965 -0.162669045 -0.739357824c -0.006858466 -0.220204859 0.029761247 -0.416353618 0.121518251 -0.581871329c 0.091757004 -0.165517711 0.238819242 -0.300707321 0.429023773 -0.411234938c 0.190204531 -0.110527617 0.43853981 -0.188022781 0.712203414 -0.251930763c 0.273663603 -0.063907982 0.600220559 -0.098527642 0.929778205 -0.131517131c 0.329557646 -0.032989489 0.698364326 -0.044254394 1.047567671 -0.066419802c 0.349203345 -0.022165408 0.718218434 -0.033806255 1.047652401 -0.066572643c 0.329433967 -0.032766388 0.655270694 -0.06608685 0.928951401 -0.130025685c 0.273680707 -0.063938835 0.522696973 -0.142662411 0.71313284 -0.253607328c 0.190435867 -0.110944917 0.337658626 -0.246424086 0.429482361 -0.412062172c 0.091823735 -0.165638086 0.128331237 -0.36158443 0.121460051 -0.581766343c -0.006871186 -0.220181913 -0.071808421 -0.473512989 -0.162687167 -0.739325134c -0.090878746 -0.265812146 -0.235688024 -0.559041678 -0.382585311 -0.85554774c -0.146897287 -0.296506062 -0.332512912 -0.615694013 -0.498798409 -0.923488633c -0.166285497 -0.30779462 -0.352207675 -0.626429589 -0.498914575 -0.923279084c -0.1467069 -0.296849495 -0.290446593 -0.59200842 -0.381326824 -0.857817886c -0.090880232 -0.265809466 -0.156644046 -0.517649499 -0.163954565 -0.737038912c -0.007310519 -0.219389413 0.028817885 -0.414651915 0.12009145 -0.579297566c 0.091273565 -0.16464565 0.236215385 -0.296010301 0.427549941 -0.408576336c 0.191334556 -0.112566035 0.445301606 -0.200220181 0.720457395 -0.266819874c 0.275155789 -0.066599693 0.600700447 -0.099393299 0.930477341 -0.132778282c 0.329776894 -0.033384983 0.698788931 -0.045020327 1.04818402 -0.067531616c 0.349395089 -0.022511289 0.718415663 -0.034162031 1.048186516 -0.067536117c 0.329770853 -0.033374086 0.656552043 -0.068398236 0.930438601 -0.1327084c 0.273886558 -0.064310164 0.522613406 -0.142511667 0.712880747 -0.253152585c 0.190267341 -0.110640918 0.337077305 -0.245375458 0.4287233 -0.410692923c 0.091645995 -0.165317465 0.128128134 -0.361218059 0.121152669 -0.581211867c -0.006975464 -0.219993808 -0.072422917 -0.472404518 -0.163005456 -0.738750982c -0.090582539 -0.266346464 -0.234043227 -0.562008678 -0.38048978 -0.859327804c -0.146446553 -0.297319127 -0.332127064 -0.616390032 -0.498189539 -0.924586955c -0.166062475 -0.308196923 -0.351741578 -0.627270368 -0.49818531 -0.924594583c -0.146443732 -0.297324215 -0.289900193 -0.592994053 -0.380477084 -0.859350708c -0.09057689 -0.266356654 -0.156017286 -0.518780093 -0.162984259 -0.738789218c -0.006966973 -0.220009125 0.02952507 -0.415927585 0.12118242 -0.581265534c 0.09165735 -0.165337948 0.238480091 -0.300095537 0.42876168 -0.410762156c 0.190281589 -0.110666619 0.4390366 -0.188918925 0.712927854 -0.25323756c 0.273891254 -0.064318634 0.600661993 -0.099323933 0.930419668 -0.132674247c 0.329757674 -0.033350314 0.698750551 -0.044951094 1.048126378 -0.067427636c 0.349375827 -0.022476542 0.718369437 -0.034078646 1.048128584 -0.067431616c 0.329759147 -0.03335297 0.656532091 -0.068362246 0.930426297 -0.132686206c 0.273894206 -0.06432396 0.522652903 -0.142582915 0.712938938 -0.253257554c 0.190286035 -0.110674639 0.337113961 -0.245441581 0.428777272 -0.410790282c 0.091663311 -0.165348701 0.128163898 -0.361282574 0.121202593 -0.581301923c -0.006961305 -0.220019349 -0.072396011 -0.472453052 -0.162970425 -0.738814173c -0.090574414 -0.266361121 -0.235067148 -0.560161657 -0.38047606 -0.859352554c -0.145408912 -0.299190897 -0.326611936 -0.626338606 -0.491977411 -0.935792826c -0.165365475 -0.30945422 -0.353165437 -0.624701911 -0.500215439 -0.920932495c -0.147050002 -0.296230583 -0.291041801 -0.59093474 -0.382084573 -0.856451005c -0.091042772 -0.265516265 -0.156878602 -0.517226391 -0.164172058 -0.736646583c -0.007293457 -0.219420191 0.028942059 -0.414875908 0.120411318 -0.579874565c 0.091469259 -0.164998657 0.238201704 -0.299593363 0.428404237 -0.410117375c 0.190202533 -0.110524012 0.439019385 -0.188887871 0.71281096 -0.253026698c 0.273791575 -0.064138827 0.600411234 -0.098871595 0.92993849 -0.131806265c 0.329527256 -0.032934669 0.6982202 -0.04399441 1.047225046 -0.06580175c 0.349004845 -0.02180734 0.717557445 -0.032613917 1.046804027 -0.065042287c 0.329246583 -0.032428371 0.655436421 -0.066385799 0.928675468 -0.129527938c 0.273239047 -0.063142138 0.519697137 -0.137251096 0.710758813 -0.249324892c 0.191061677 -0.112073796 0.342813592 -0.255722975 0.435611247 -0.423117885c 0.092797655 -0.167394911 0.128138863 -0.361237413 0.121174684 -0.581251578c -0.006964179 -0.220014165 -0.072391424 -0.472461326 -0.16295976 -0.738833412c -0.090568336 -0.266372085 -0.234015873 -0.562058021 -0.380450256 -0.859399101c -0.146434383 -0.29734108 -0.332103749 -0.61643209 -0.498156042 -0.92464738c -0.166052293 -0.30821529 -0.351722215 -0.627305297 -0.498157715 -0.924644361c -0.146435501 -0.297339064 -0.28988471 -0.593021983 -0.380455288 -0.859390024c -0.090570578 -0.266368041 -0.156005624 -0.518801129 -0.162968181 -0.738818221c -0.006962557 -0.220017092 0.029532954 -0.415941806 0.121192841 -0.581284332c 0.091659887 -0.165342525 0.238484227 -0.300102997 0.428766484 -0.410770821c 0.190282257 -0.110667824 0.439037003 -0.188919652 0.712927058 -0.253236124c 0.273890055 -0.064316472 0.600658666 -0.09931793 0.930413269 -0.132662705c 0.329754604 -0.033344775 0.69874348 -0.044938338 1.048114353 -0.067405945c 0.349370873 -0.022467606 0.718358596 -0.034059089 1.048110887 -0.067399693c 0.329752291 -0.033340604 0.656517439 -0.068335814 0.930402861 -0.132643931c 0.273885423 -0.064308117 0.522634384 -0.142549509 0.712909676 -0.253204769c 0.190275292 -0.11065526 0.337091507 -0.245401076 0.428742074 -0.410726789c 0.091650567 -0.165325713 0.12813559 -0.361231508 0.121161329 -0.581227489c -0.00697426 -0.21999598 -0.07242219 -0.472405828 -0.163006891 -0.738748393c -0.090584701 -0.266342565 -0.234049229 -0.561997851 -0.380501314 -0.859306999c -0.146452085 -0.297309148 -0.332139807 -0.616367045 -0.498211196 -0.924547888c -0.166071389 -0.308180843 -0.351779429 -0.62720209 -0.498217138 -0.924537171c -0.146437709 -0.29733508 -0.28985587 -0.593074007 -0.380409116 -0.859473312c -0.090553247 -0.266399305 -0.155967046 -0.518870719 -0.162910364 -0.738922516c -0.006943317 -0.220051797 0.029571346 -0.41601106 0.12125046 -0.581388268c 0.091679114 -0.165377208 0.237339651 -0.29803833 0.428824225 -0.410874979c 0.191484574 -0.112836649 0.445196703 -0.200030951 0.720083222 -0.266144913c 0.274886518 -0.066113963 0.599853622 -0.097865737 0.929235889 -0.130538864c 0.329382267 -0.032673127 0.698018946 -0.043631374 1.047057711 -0.0654999c 0.349038765 -0.021868526 0.717714501 -0.032897226 1.04717488 -0.065711258c 0.329460379 -0.032814032 0.655953718 -0.067318936 0.929587394 -0.131172933c 0.273633676 -0.063853997 0.522150979 -0.141677508 0.712214661 -0.251951051c 0.190063682 -0.110273543 0.33692142 -0.245094262 0.428167431 -0.409690209c 0.091246011 -0.164595947 0.126539153 -0.358351744 0.119308637 -0.577885473c -0.007230516 -0.219533728 -0.071976103 -0.47321051 -0.162691733 -0.739316897c -0.09071563 -0.266106387 -0.235325057 -0.559696423 -0.381602045 -0.857321424c -0.146276988 -0.297625001 -0.330388615 -0.619525968 -0.496059881 -0.928428581c -0.165671266 -0.308902613 -0.351288116 -0.628088355 -0.497967714 -0.924987098c -0.146679599 -0.296898743 -0.291180263 -0.590684974 -0.382109877 -0.85640536c -0.090929615 -0.265720386 -0.156324945 -0.518225115 -0.16346781 -0.737916955c -0.007142865 -0.21969184 0.02915861 -0.41526654 0.120610621 -0.580234082c 0.091452011 -0.164967543 0.238016465 -0.299259216 0.428101443 -0.409571174c 0.190084978 -0.110311958 0.438546213 -0.188034329 0.712408424 -0.252300575c 0.273862211 -0.064266246 0.600896677 -0.099747272 0.930764844 -0.1332969c 0.329868167 -0.033549628 0.698966709 -0.045341016 1.048444157 -0.068000868c 0.349477448 -0.022659852 0.718568121 -0.034437044 1.048420529 -0.067958246c 0.329852408 -0.033521202 0.656714317 -0.068690957 0.930693921 -0.133168964c 0.273979604 -0.064478008 0.522819655 -0.142883713 0.713183705 -0.253699081c 0.19036405 -0.110815368 0.33726619 -0.245716182 0.429000595 -0.411193128c 0.091734406 -0.165476947 0.128300687 -0.361529322 0.121405839 -0.581668551c -0.006894848 -0.220139229 -0.072265697 -0.472688122 -0.162774927 -0.739166826c -0.090509231 -0.266478704 -0.233900375 -0.562266365 -0.380280456 -0.859705398c -0.146380081 -0.297439033 -0.331997646 -0.616623485 -0.498000032 -0.9249288c -0.166002386 -0.308305315 -0.351624695 -0.627481209 -0.498014284 -0.924903092c -0.146389589 -0.297421883 -0.289794978 -0.593183848 -0.380323249 -0.859628205c -0.090528271 -0.266444358 -0.155922904 -0.518950346 -0.162846377 -0.739037941c -0.006923473 -0.220087595 0.029609421 -0.416079743 0.121305541 -0.581487628c 0.091696121 -0.165407885 0.23855518 -0.300230988 0.428871182 -0.410959684c 0.190316002 -0.110728697 0.438229451 -0.187462932 0.713024832 -0.253412495c 0.274795381 -0.065949563 0.605420238 -0.107907188 0.935747454 -0.142284882c 0.330327216 -0.034377694 0.697399495 -0.042513965 1.046215844 -0.063981281c 0.348816349 -0.021467316 0.717500082 -0.032510441 1.04668225 -0.064822617c 0.329182168 -0.032312175 0.978875337 0.083794047 0.928410759 -0.129050436c -0.050464578 -0.212844483 -0.820798818 -0.765344307 -1.231198227 -1.148016461"/><path fill="none" transform="translate(435.536768755 6.693424237)" d="M 0 0h 5.71v 8.98h -5.71v -8.98Z "/><g transform="translate(435.536768722 6.693424189)"><g transform="matrix(1 0 0 -1 0 6.83)"><use xlink:href="#gB51309CEEA1D83C815FD51E59C292E6A" x="0" y="0" fill="#3d2645" fill-rule="nonzero"/></g></g><path fill="none" stroke="#6f4d85" stroke-width="1" stroke-linecap="round" stroke-linejoin="miter" stroke-miterlimit="4" transform="translate(395.907053471 88.612818153)" d="M 0 0c 12.715618365 22.943194491 25.431236729 45.886388982 38.146855094 68.829583473"/><path fill="#3d2645" fill-rule="nonzero" stroke="#3d2645" stroke-width="0.3" stroke-linecap="butt" stroke-linejoin="miter" stroke-miterlimit="4" transform="translate(411.585206778 119.342212591)" d="M 0 0m 4.838077131 6.288692428l -4.838077131 -4.12448809l 3.904942695 -2.164204338l 0.933134437 6.288692428Z "/><path fill="none" transform="translate(435.277371578 158.211793776)" d="M 0 0h 5.44v 6.94h -5.44v -6.94Z "/><g transform="translate(435.277371575 158.211793699)"><g transform="matrix(1 0 0 -1 0 6.83)"><use xlink:href="#gAE9FF52A1D42223AC1C1C189F82D6586" x="0" y="0" fill="#3d2645" fill-rule="nonzero"/></g></g><path fill="none" stroke="#b09dbc" stroke-width="1" stroke-linecap="round" stroke-linejoin="miter" stroke-miterlimit="4" transform="translate(114.447859137 86.201772142)" d="M 0 0c 19.974793385 0.004360744 39.949586944 0.007876463 59.924380626 0.010547156"/><path fill="none" stroke="#6f4d85" stroke-width="1" stroke-linecap="round" stroke-linejoin="miter" stroke-miterlimit="4" transform="translate(55.880366384 86.186564566)" d="M 0 0c 19.522497366 0.005876382 39.044994967 0.010945574 58.567492753 0.015207576"/><path fill="#3d2645" fill-rule="nonzero" stroke="#3d2645" stroke-width="0.3" stroke-linecap="butt" stroke-linejoin="miter" stroke-miterlimit="4" transform="translate(108.494606663 83.968164156)" d="M 0 0m 5.953252474 2.233607985l -5.953252474 2.230958833l 0.000993432 -4.464566818l 5.952259042 2.233607985Z "/><path fill="none" transform="translate(117.164375316 91.630923006)" d="M 0 0h 5.44v 6.94h -5.44v -6.94Z "/><g transform="translate(117.164375313 91.630922929)"><g transform="matrix(1 0 0 -1 0 6.83)"><use xlink:href="#gAE9FF52A1D42223AC1C1C189F82D6586" x="0" y="0" fill="#3d2645" fill-rule="nonzero"/></g></g><path fill="none" stroke="#b09dbc" stroke-width="1" stroke-linecap="round" stroke-linejoin="miter" stroke-miterlimit="4" transform="translate(223.94923865 61.085672376)" d="M 0 0c 17.978058022 0.008506108 34.815726274 8.589890708 45.393192562 22.997659136"/><path fill="none" stroke="#6f4d85" stroke-width="1" stroke-linecap="round" stroke-linejoin="miter" stroke-miterlimit="4" transform="translate(178.527411102 61.085666046)" d="M 0 0m 0 22.963473697c 10.590754207 -14.40288792 27.439790303 -22.971975358 45.421827548 -22.963467367"/><path fill="#3d2645" fill-rule="nonzero" stroke="#3d2645" stroke-width="0.3" stroke-linecap="butt" stroke-linejoin="miter" stroke-miterlimit="4" transform="translate(217.889700947 59.167305161)" d="M 0 0m 6.059537703 1.918367215l -5.826319652 2.540104183l -0.233218051 -4.458471398l 6.059537703 1.918367215Z "/><path fill="none" transform="translate(226.37559895 54.27002084)" d="M 0 0h 5.44v 6.94h -5.44v -6.94Z "/><g transform="translate(226.375598947 54.270020763)"><g transform="matrix(1 0 0 -1 0 6.83)"><use xlink:href="#gAE9FF52A1D42223AC1C1C189F82D6586" x="0" y="0" fill="#3d2645" fill-rule="nonzero"/></g></g><path fill="none" stroke="#3d2645" stroke-width="1" stroke-linecap="round" stroke-linejoin="miter" stroke-miterlimit="4" transform="translate(178.525286942 88.377680302)" d="M 0 0c 0.151783806 0.183013623 0.267274008 0.37012025 0.455351418 0.549040869c 0.18807741 0.178920619 0.444079072 0.401544663 0.673113042 0.524482844c 0.22903397 0.122938181 0.510359449 0.213664864 0.701090776 0.213146241c 0.190731327 -0.000518622 0.372220313 -0.097333954 0.443297187 -0.216257975c 0.071076875 -0.118924021 0.070957096 -0.336467686 -0.01683594 -0.497286151c -0.087793036 -0.160818466 -0.29920012 -0.385029995 -0.509922277 -0.467624642c -0.210722157 -0.082594648 -0.531838378 -0.13596034 -0.754410667 -0.027943243c -0.222572289 0.108017097 -0.462437092 0.355385088 -0.581023065 0.676045823c -0.118585974 0.320660735 -0.165122945 0.7816142 -0.130492776 1.24791859c 0.034630169 0.46630439 0.145661156 1.013090646 0.338273788 1.549907749c 0.192612632 0.536817103 0.476032893 1.127039955 0.817402006 1.67099487c 0.341369114 0.543954915 0.773616197 1.105871926 1.230812675 1.592734621c 0.457196479 0.486862696 0.990881282 0.953558502 1.512366196 1.328441552c 0.521484913 0.37488305 1.093084276 0.695104539 1.616543285 0.92085675c 0.523459009 0.22575221 1.06145097 0.370211297 1.524210772 0.433656512c 0.462759801 0.063445215 0.903255849 0.033163764 1.252348036 -0.052985222c 0.349092187 -0.086148986 0.642175773 -0.263937329 0.842205086 -0.463908692c 0.200029313 -0.199971363 0.318166468 -0.475872663 0.35797079 -0.735919485c 0.039804321 -0.260046822 -0.013043053 -0.56667376 -0.119144862 -0.824361446c -0.106101809 -0.257687685 -0.302658148 -0.527092653 -0.517465992 -0.721764666c -0.214807844 -0.194672013 -0.503852909 -0.365332641 -0.77138107 -0.44626741c -0.267528161 -0.080934769 -0.578646069 -0.104216505 -0.833787899 -0.039341203c -0.25514183 0.064875302 -0.5175858 0.210006481 -0.697063082 0.428593014c -0.179477282 0.218586534 -0.328038103 0.527319395 -0.379800612 0.882926188c -0.051762509 0.355606793 -0.038957009 0.796699175 0.069225558 1.250714569c 0.108182567 0.454015394 0.30244087 0.9733678 0.579869846 1.473377794c 0.277428976 0.500009994 0.658914894 1.043194959 1.084704011 1.526682172c 0.425789117 0.483487214 0.940819197 0.967188004 1.470030689 1.374241109c 0.529211492 0.407053105 1.130601997 0.781879758 1.705238264 1.068077523c 0.574636267 0.286197766 1.189630527 0.510209406 1.742579335 0.649109071c 0.552948808 0.138899665 1.107817848 0.195657013 1.575113512 0.18428892c 0.467295663 -0.011368092 0.897600237 -0.111673851 1.228660468 -0.252497473c 0.331060231 -0.140823622 0.591938353 -0.363239447 0.757700917 -0.592444259c 0.165762564 -0.229204812 0.241350021 -0.518452456 0.236874465 -0.782784612c -0.004475556 -0.264332156 -0.115350102 -0.564391303 -0.263727803 -0.803208324c -0.148377701 -0.238817021 -0.383708693 -0.472180741 -0.626538403 -0.629693801c -0.242829711 -0.157513059 -0.554038164 -0.278751383 -0.83043986 -0.315384556c -0.276401697 -0.036633173 -0.587012352 -0.00964286 -0.827970321 0.095585521c -0.240957968 0.105228381 -0.476227883 0.290881273 -0.617777489 0.535784766c -0.141549605 0.244903494 -0.238097048 0.573876335 -0.231520144 0.933636195c 0.006576905 0.359759861 0.090419692 0.793462462 0.270981572 1.22492297c 0.18056188 0.431460508 0.456647629 0.913713157 0.812389706 1.363840079c 0.355742077 0.450126921 0.823761186 0.92766504 1.322062754 1.336921449c 0.498301569 0.409256409 1.081107052 0.802232328 1.667746659 1.118617005c 0.586639607 0.316384677 1.24208628 0.590738679 1.852090984 0.779691054c 0.610004704 0.188952375 1.237609181 0.304569011 1.807937239 0.354023195c 0.570328057 0.049454184 1.152336673 0.027753086 1.614031105 -0.057298091c 0.461694433 -0.085051177 0.855006563 -0.259654837 1.156135491 -0.453008974c 0.301128928 -0.193354136 0.524709824 -0.453924134 0.650638075 -0.707115845c 0.125928251 -0.25319171 0.147315514 -0.553673633 0.104931432 -0.812034418c -0.042384082 -0.258360785 -0.180064476 -0.528579122 -0.359235926 -0.738130291c -0.17917145 -0.209551169 -0.451422446 -0.403009457 -0.715792774 -0.519176722c -0.264370328 -0.116167265 -0.591709008 -0.186092355 -0.870429197 -0.17782687c -0.278720189 0.008265485 -0.580971218 0.084828288 -0.801891938 0.227419781c -0.22092072 0.142591493 -0.423293805 0.363651062 -0.52363238 0.628129176c -0.100338575 0.264478114 -0.142740071 0.604703277 -0.078399071 0.958739505c 0.064341 0.354036228 0.217070986 0.768736755 0.464445069 1.165477863c 0.247374083 0.396741109 0.599793403 0.829224792 1.01979943 1.214968788c 0.420006027 0.385743997 0.947930951 0.777503373 1.500236731 1.099495193c 0.55230578 0.32199182 1.185391901 0.614766129 1.813597947 0.832455725c 0.628206045 0.217689596 1.319953235 0.384000972 1.955638325 0.473681849c 0.63568509 0.089680877 1.289975291 0.107598373 1.858472216 0.064403416c 0.568496925 -0.043194957 1.112821457 -0.16492398 1.552509336 -0.323573159c 0.439687879 -0.158649179 0.816139891 -0.389967717 1.08561794 -0.628321916c 0.26947805 -0.2383542 0.446521938 -0.531915286 0.531250357 -0.801803281c 0.084728419 -0.269887995 0.060509567 -0.569269789 -0.022879844 -0.817524688c -0.083389412 -0.2482549 -0.265092782 -0.493434414 -0.477456627 -0.67200471c -0.212363844 -0.178570296 -0.515581395 -0.326738971 -0.796726439 -0.399417068c -0.281145044 -0.072678097 -0.615580828 -0.089279886 -0.890143826 -0.036651514c -0.274562998 0.052628372 -0.561351341 0.176445754 -0.75723416 0.352421744c -0.195882819 0.17597599 -0.360833126 0.42644094 -0.418062755 0.703434195c -0.057229629 0.276993255 -0.044817188 0.619556272 0.074684982 0.958525334c 0.11950217 0.338969062 0.332934872 0.72289881 0.642328036 1.075289036c 0.309393164 0.352390226 0.737474664 0.725525981 1.214030951 1.039052319c 0.476556287 0.313526338 1.048087415 0.612817312 1.64530677 0.842105709c 0.597219355 0.229288397 1.280792914 0.419100049 1.93800936 0.533624672c 0.657216446 0.114524623 1.363832128 0.167076866 2.005289319 0.153523066c 0.641457191 -0.0135538 1.289701168 -0.100929152 1.843453828 -0.234845864c 0.55375266 -0.133916712 1.070617414 -0.341489422 1.479062134 -0.568654409c 0.40844472 -0.227164987 0.743590407 -0.515841547 0.971606183 -0.794335511c 0.228015776 -0.278493964 0.355953048 -0.596652699 0.396488472 -0.876628272c 0.040535424 -0.279975574 -0.029239593 -0.571428488 -0.153275926 -0.803225169c -0.124036333 -0.231796681 -0.35122903 -0.445251859 -0.590942073 -0.587554915c -0.239713043 -0.142303056 -0.559148973 -0.239690938 -0.847336186 -0.26626342c -0.288187212 -0.026572482 -0.620060837 0.010764547 -0.881787089 0.106828526c -0.261726252 0.096063979 -0.52416807 0.264366149 -0.688570424 0.469555348c -0.164402354 0.205189198 -0.2863831 0.478941751 -0.297843699 0.761579842c -0.011460599 0.28263809 0.053334685 0.618516104 0.229080103 0.9342487c 0.175745417 0.315732596 0.463520059 0.661980442 0.825392402 0.960146874c 0.361872343 0.298166431 0.827159335 0.596105794 1.345841658 0.828851714c 0.518682323 0.23274592 1.138962085 0.437066976 1.766252283 0.567623807c 0.627290197 0.13055683 1.33078485 0.208105071 1.9974889 0.215717176c 0.66670405 0.007612105 1.635183446 -0.132016945 2.002735402 -0.170044546c 0.367551956 -0.038027601 0.135050891 -0.038747373 0.202576336 -0.058121059"/><path fill="none" stroke="#948899" stroke-width="1" stroke-linecap="round" stroke-linejoin="miter" stroke-miterlimit="4" transform="translate(225.479465959 88.397205369)" d="M 0 0m 0 25.062799435c 0.578448597 -0.186111565 1.228360133 -0.329501676 1.735345792 -0.558334694c 0.506985659 -0.228833018 0.961949631 -0.522465984 1.30656816 -0.814663413c 0.34461853 -0.292197429 0.603506519 -0.630352687 0.761143017 -0.93852116c 0.157636498 -0.308168473 0.205693236 -0.635728552 0.184675972 -0.910489677c -0.021017264 -0.274761125 -0.142180102 -0.54090669 -0.310779555 -0.738077072c -0.168599454 -0.197170381 -0.437907444 -0.356657463 -0.700817166 -0.444945217c -0.262909722 -0.088287754 -0.592946113 -0.117973553 -0.876641165 -0.084781308c -0.283695053 0.033192245 -0.595315769 0.136654649 -0.82552915 0.283934777c -0.230213381 0.147280128 -0.444791199 0.364829486 -0.555751138 0.599745992c -0.110959939 0.234916506 -0.165227341 0.528412422 -0.110008495 0.809753043c 0.055218846 0.281340621 0.199218015 0.599775165 0.441321572 0.878290683c 0.242103557 0.278515518 0.591059867 0.56634383 1.01129977 0.792802426c 0.420239903 0.226458596 0.948556802 0.432691017 1.510139648 0.56594915c 0.561582845 0.133258133 1.215799141 0.219774388 1.859357424 0.233599648c 0.643558283 0.013825259 1.348400152 -0.037994916 2.001992274 -0.150648091c 0.653592121 -0.112653175 1.329013141 -0.299458146 1.919560455 -0.525270957c 0.590547314 -0.225812811 1.159840854 -0.522338599 1.623723427 -0.829605909c 0.463882573 -0.30726731 0.864984552 -0.669909294 1.159572011 -1.013997952c 0.294587459 -0.344088657 0.499999204 -0.72053845 0.607952745 -1.050533991c 0.107953542 -0.329995541 0.106817452 -0.662161915 0.039768504 -0.929439257c -0.067048948 -0.267277343 -0.240948392 -0.507453362 -0.44206219 -0.6742248c -0.201113798 -0.166771438 -0.49039261 -0.281567634 -0.764620598 -0.326403826c -0.274227988 -0.044836191 -0.605366853 -0.021041644 -0.880747329 0.057386677c -0.275380476 0.078428321 -0.567109053 0.230706016 -0.771535529 0.413183249c -0.204426477 0.182477234 -0.382212041 0.431807192 -0.455023331 0.681680153c -0.07281129 0.249872961 -0.082901403 0.549009583 0.018155593 0.817557612c 0.101056996 0.268548028 0.302664761 0.558056025 0.588186382 0.793730558c 0.285521622 0.235674533 0.67402109 0.464190342 1.124943347 0.620316642c 0.450922257 0.1561263 1.005179122 0.274962223 1.580590198 0.316441156c 0.575411076 0.041478933 1.234397441 0.022075394 1.871876256 -0.067567555c 0.637478815 -0.089642949 1.325558805 -0.25408727 1.952996636 -0.470290139c 0.627437831 -0.216202869 1.264603337 -0.509140185 1.81163035 -0.826927075c 0.547027014 -0.317786889 1.061471512 -0.701867153 1.470531733 -1.079794262c 0.409060221 -0.377927109 0.750859583 -0.802022242 0.983829594 -1.187768391c 0.232970011 -0.385746149 0.362959713 -0.784829822 0.413990473 -1.126708503c 0.05103076 -0.341878681 0.000479485 -0.67117885 -0.107805913 -0.924563583c -0.108285398 -0.253384733 -0.317318916 -0.463077279 -0.541906472 -0.595744814c -0.224587556 -0.132667534 -0.528273721 -0.199728353 -0.805618866 -0.200260393c -0.277345145 -0.00053204 -0.599823283 0.075779286 -0.858452004 0.197068152c -0.258628721 0.121288866 -0.521512111 0.318077542 -0.693320321 0.530665043c -0.171808209 0.212587501 -0.309540594 0.488009053 -0.337528935 0.744859961c -0.027988341 0.256850908 0.024792427 0.548161277 0.169598889 0.796245489c 0.144806462 0.248084212 0.381710926 0.504668488 0.699239884 0.692259783c 0.317528958 0.187591294 0.73688622 0.351095836 1.205933862 0.433287982c 0.469047642 0.082192146 1.034374166 0.110928891 1.608351991 0.059864894c 0.573977825 -0.051063996 1.218547979 -0.174460999 1.835514962 -0.366248873c 0.616966982 -0.191787874 1.281837096 -0.470613167 1.866286933 -0.784478371c 0.584449837 -0.313865204 1.154287092 -0.698894363 1.64041209 -1.098712853c 0.486124997 -0.39981849 0.93401126 -0.862168189 1.276337895 -1.300198086c 0.342326635 -0.438029897 0.608431264 -0.909236322 0.777621913 -1.327981297c 0.169190649 -0.418744975 0.236796084 -0.835498588 0.237521982 -1.184488554c 0.000725898 -0.348989966 -0.089191651 -0.674405995 -0.233166592 -0.909451241c -0.143974941 -0.235045246 -0.387677453 -0.405996636 -0.630683053 -0.500820238c -0.2430056 -0.094823602 -0.553526832 -0.112184643 -0.827350548 -0.068121374c -0.273823716 0.044063269 -0.579834953 0.171219418 -0.815591747 0.332500986c -0.235756794 0.161281568 -0.463571382 0.397759843 -0.598949017 0.635188423c -0.135377635 0.23742858 -0.224249077 0.529800508 -0.213316791 0.789383059c 0.010932286 0.259582551 0.10162622 0.543303343 0.278910507 0.768112247c 0.177284287 0.224808904 0.443451105 0.445198583 0.784795218 0.580741178c 0.341344112 0.135542595 0.786134993 0.227097428 1.263269456 0.232514394c 0.477134463 0.005416966 1.040559689 -0.057273963 1.599537324 -0.200012597c 0.558977634 -0.142738634 1.177967333 -0.369668977 1.754328483 -0.656419205c 0.576361149 -0.286750228 1.177052498 -0.660462254 1.703838413 -1.064082165c 0.526785915 -0.403619911 1.038518165 -0.883103608 1.456877075 -1.3576373c 0.41835891 -0.474533692 0.78480523 -1.001617653 1.053276386 -1.489564853c 0.268471156 -0.487947199 0.454994371 -0.995183462 0.557550551 -1.438118343c 0.10255618 -0.442934882 0.114415828 -0.876135507 0.057786529 -1.219490947c -0.056629299 -0.343355439 -0.213840522 -0.635279986 -0.397562324 -0.840641688c -0.183721802 -0.205361702 -0.44908881 -0.337411064 -0.704768487 -0.391528524c -0.255679677 -0.05411746 -0.56554305 -0.021003349 -0.829309576 0.066823763c -0.263766526 0.087827112 -0.545952819 0.262783843 -0.75328958 0.460138908c -0.20733676 0.197355065 -0.394520165 0.46743229 -0.490730981 0.723991481c -0.096210816 0.256559191 -0.138531348 0.560564522 -0.086533916 0.815363666c 0.051997432 0.254799144 0.18528986 0.521731931 0.39851851 0.713431197c 0.21322865 0.191699267 0.520236003 0.359297485 0.880853391 0.436764402c 0.360617388 0.077466917 0.811372322 0.098923157 1.282850939 0.028037097c 0.471478617 -0.070886059 1.017448472 -0.223045481 1.546020764 -0.453353454c 0.528572292 -0.230307974 1.102840209 -0.553317288 1.625412985 -0.928494387c 0.522572776 -0.375177099 1.054887461 -0.839740002 1.510023672 -1.322568208c 0.455136211 -0.482828206 0.883799827 -1.038682942 1.220793593 -1.574401028c 0.336993766 -0.535718085 0.614327372 -1.115023282 0.801169001 -1.639907485c 0.186841629 -0.524884203 0.291016621 -1.057350139 0.319880775 -1.509397733c 0.028864153 -0.452047593 -0.034720199 -0.874300291 -0.146695854 -1.202887828c -0.111975654 -0.328587537 -0.311515145 -0.594586412 -0.525158072 -0.768637396c -0.213642927 -0.174050984 -0.501093767 -0.276525805 -0.756699489 -0.275668507c -0.255605722 0.000857297 -0.575573564 0.120277239 -0.776934842 0.280812291c -0.201361278 0.160535052 -0.383215048 0.46301741 -0.431232825 0.682398022c -0.048017777 0.219380612 0.007774512 0.489807315 0.143126163 0.633885651c 0.135351652 0.144078336 0.399935279 0.242478492 0.668983747 0.230584364c 0.269048467 -0.011894128 0.638873174 -0.137708227 0.945307058 -0.301949133c 0.306433884 -0.164240906 0.637067671 -0.43833205 0.893296245 -0.683496302c 0.256228574 -0.245164252 0.47011854 -0.553380868 0.644075199 -0.787489211c 0.17395666 -0.234108343 0.327748673 -0.506895172 0.399664759 -0.617160847c 0.071916086 -0.110265675 0.021221172 -0.029622136 0.031831758 -0.044433204"/><path fill="none" transform="translate(230.831420012 117.937302774)" d="M 0 0h 5.02v 8.88h -5.02v -8.88Z "/><g transform="translate(230.831419964 117.937302759)"><g transform="matrix(1 0 0 -1 0 6.83)"><use xlink:href="#gFBE86858E3D205FC60176DC0E4E4937B" x="0" y="0" fill="#3d2645" fill-rule="nonzero"/></g></g><path fill="none" stroke="#b09dbc" stroke-width="1" stroke-linecap="round" stroke-linejoin="miter" stroke-miterlimit="4" transform="translate(333.429640577 86.281979075)" d="M 0 0c 19.518908356 0.008747267 39.037817447 0.015764839 58.556727043 0.021052716"/><path fill="none" stroke="#6f4d85" stroke-width="1" stroke-linecap="round" stroke-linejoin="miter" stroke-miterlimit="4" transform="translate(273.495954935 86.2496842)" d="M 0 0c 19.977894195 0.012576958 39.955789491 0.023341916 59.933685642 0.032294876"/><path fill="#3d2645" fill-rule="nonzero" stroke="#3d2645" stroke-width="0.3" stroke-linecap="butt" stroke-linejoin="miter" stroke-miterlimit="4" transform="translate(327.475864802 84.046974532)" d="M 0 0m 5.953775776 2.235004544l -5.953775776 2.229561918l 0.002040985 -4.464566463l 5.951734791 2.235004544Z "/><path fill="none" transform="translate(324.335416314 91.571651405)" d="M 0 0h 5.44v 6.94h -5.44v -6.94Z "/><g transform="translate(324.335416312 91.571651328)"><g transform="matrix(1 0 0 -1 0 6.83)"><use xlink:href="#gAE9FF52A1D42223AC1C1C189F82D6586" x="0" y="0" fill="#3d2645" fill-rule="nonzero"/></g></g><path fill="none" stroke="#3d2645" stroke-width="1.45" stroke-linecap="butt" stroke-linejoin="miter" stroke-miterlimit="4" transform="translate(50.599423796 83.545764703)" d="M 0 0m 2.64 0c -1.45670976 0 -2.64 1.18329024 -2.64 2.64c 0 1.45670976 1.18329024 2.64 2.64 2.64c 1.45670976 0 2.64 -1.18329024 2.64 -2.64c 0 -1.45670976 -1.18329024 -2.64 -2.64 -2.64Z "/><path fill="none" stroke="#3d2645" stroke-width="1.45" stroke-linecap="butt" stroke-linejoin="miter" stroke-miterlimit="4" transform="translate(174.373186012 83.572667478)" d="M 0 0m 2.64 0c -1.45670976 0 -2.64 1.18329024 -2.64 2.64c 0 1.45670976 1.18329024 2.64 2.64 2.64c 1.45670976 0 2.64 -1.18329024 2.64 -2.64c 0 -1.45670976 -1.18329024 -2.64 -2.64 -2.64Z "/><path fill="none" stroke="#3d2645" stroke-width="1.45" stroke-linecap="butt" stroke-linejoin="miter" stroke-miterlimit="4" transform="translate(268.215009167 83.608011054)" d="M 0 0m 2.64 0c -1.45670976 0 -2.64 1.18329024 -2.64 2.64c 0 1.45670976 1.18329024 2.64 2.64 2.64c 1.45670976 0 2.64 -1.18329024 2.64 -2.64c 0 -1.45670976 -1.18329024 -2.64 -2.64 -2.64Z "/><path fill="none" stroke="#3d2645" stroke-width="1.45" stroke-linecap="butt" stroke-linejoin="miter" stroke-miterlimit="4" transform="translate(391.987310207 83.663736696)" d="M 0 0m 2.64 0c -1.45670976 0 -2.64 1.18329024 -2.64 2.64c 0 1.45670976 1.18329024 2.64 2.64 2.64c 1.45670976 0 2.64 -1.18329024 2.64 -2.64c 0 -1.45670976 -1.18329024 -2.64 -2.64 -2.64Z "/></g><defs><symbol id="gB51309CEEA1D83C815FD51E59C292E6A" overflow="visible"><path d="M 0 0m 5.24 3.78c 0.13 0.25 0.19 0.38 0.19 0.39c 0 0.09 -0.05 0.14 -0.16 0.14c -0.07 0 -0.12 -0.03 -0.15 -0.09c -0.35 -0.65 -0.76 -1.57 -1.24 -2.76c -0.04 0.66 -0.17 1.28 -0.39 1.85c -0.29 0.74 -0.74 1.11 -1.35 1.11c -0.63 0 -1.18 -0.42 -1.46 -0.81c -0.33 -0.47 -0.5 -0.82 -0.5 -1.04c 0 -0.09 0.08 -0.14 0.25 -0.14l 0.05 0.07c 0.17 0.52 0.46 0.85 0.87 0.99c 0.28 0.09 0.5 0.14 0.66 0.14c 1.04 0 1.56 -0.82 1.56 -2.47c 0 -0.39 -0.04 -0.71 -0.12 -0.96c -0.34 -1.11 -0.51 -1.82 -0.51 -2.13c 0 -0.15 0.06 -0.22 0.17 -0.22c 0.12 0 0.24 0.21 0.35 0.62c 0.17 0.64 0.29 1.21 0.36 1.71c 0.03 0.15 0.05 0.28 0.08 0.37c 0.36 1.12 0.81 2.2 1.34 3.23Z "/></symbol><symbol id="gAE9FF52A1D42223AC1C1C189F82D6586" overflow="visible"><path d="M 0 0m 4.29 6.32l -0.59 -2.43c -0.21 0.37 -0.5 0.56 -0.89 0.56c -0.65 0 -1.22 -0.33 -1.72 -1c -0.46 -0.62 -0.69 -1.27 -0.69 -1.94c 0 -0.88 0.51 -1.62 1.35 -1.62c 0.43 0 0.85 0.23 1.25 0.7c 0.11 -0.38 0.45 -0.7 0.92 -0.7c 0.69 0 0.91 0.82 1.06 1.56c 0 0.09 -0.05 0.14 -0.15 0.14c -0.09 0 -0.15 -0.07 -0.18 -0.21c -0.2 -0.79 -0.44 -1.19 -0.71 -1.19c -0.17 0 -0.26 0.14 -0.26 0.41c 0 0.15 0.02 0.31 0.06 0.47l 1.42 5.72v 0.04c -0.03 0.07 -0.09 0.11 -0.17 0.11c -0.23 0 -0.65 -0.04 -1.25 -0.11c -0.11 -0.01 -0.17 -0.09 -0.17 -0.23c 0 -0.1 0.09 -0.15 0.27 -0.15c 0.19 0 0.45 0.01 0.45 -0.13Z m -0.88 -2.56c 0.1 -0.21 0.15 -0.35 0.15 -0.44c -0.01 -0.04 -0.02 -0.09 -0.03 -0.16l -0.49 -1.94c -0.03 -0.11 -0.1 -0.23 -0.19 -0.35c -0.37 -0.45 -0.73 -0.68 -1.08 -0.68c -0.39 0 -0.59 0.3 -0.59 0.89c 0 0.24 0.06 0.6 0.18 1.08c 0.21 0.85 0.51 1.43 0.88 1.74c 0.2 0.17 0.39 0.25 0.58 0.25c 0.27 0 0.47 -0.13 0.59 -0.39Z "/></symbol><symbol id="gFBE86858E3D205FC60176DC0E4E4937B" overflow="visible"><path d="M 0 0m 0.15 -1.41c 0 -0.43 0.45 -0.64 1.35 -0.64c 0.47 0 0.91 0.12 1.3 0.35c 0.44 0.26 0.71 0.61 0.82 1.04l 1.09 4.39c 0.02 0.1 0.03 0.16 0.03 0.19c 0 0.2 -0.11 0.3 -0.32 0.3c -0.22 0 -0.36 -0.12 -0.43 -0.35c -0.22 0.37 -0.52 0.55 -0.89 0.55c -0.64 0 -1.21 -0.32 -1.7 -0.96c -0.45 -0.6 -0.68 -1.23 -0.68 -1.88c 0 -0.87 0.51 -1.61 1.35 -1.61c 0.39 0 0.75 0.17 1.08 0.5l -0.3 -1.18c -0.29 -0.69 -0.74 -1.04 -1.37 -1.04c -0.26 0 -0.48 0.02 -0.66 0.06c 0.21 0.11 0.31 0.28 0.31 0.51c 0 0.25 -0.14 0.38 -0.41 0.38c -0.32 0 -0.57 -0.29 -0.57 -0.61Z m 3.41 5.33c 0.2 -0.21 0.3 -0.41 0.3 -0.61c 0 -0.01 -0.01 -0.06 -0.03 -0.13l -0.47 -1.89c -0.06 -0.23 -0.23 -0.47 -0.5 -0.69c -0.27 -0.22 -0.53 -0.33 -0.76 -0.33c -0.4 0 -0.6 0.29 -0.6 0.87c 0 0.55 0.34 1.77 0.54 2.13c 0.31 0.57 0.66 0.85 1.07 0.85c 0.18 0 0.33 -0.07 0.45 -0.2Z "/></symbol></defs></svg>