<svg class="typst-doc" viewBox="0 0 522.992125984252 311.81102362204723" width="522.992125984252pt" height="311.81102362204723pt" xmlns="http://www.w3.org/2000/svg" xmlns:xlink="http://www.w3.org/1999/xlink" xmlns:h5="http://www.w3.org/1999/xhtml">
    <g>
        <g transform="translate(70.86614173228347 70.86614173228347)">
            <g class="typst-group">
                <g>
                    <g transform="translate(99.21259842519684 42.51968503937008)">
                        <path class="typst-shape" fill="none" stroke="#ffffff" stroke-width="17" stroke-linecap="butt" stroke-linejoin="miter" stroke-miterlimit="4" d="M 0 0 C 0 0 255.1181 0 255.1181 0 "/>
                    </g>
                    <g transform="translate(360 0)">
                        <path class="typst-shape" fill="none" stroke="#ffffff" stroke-width="17" stroke-linecap="square" stroke-linejoin="miter" stroke-miterlimit="4" d="M 0 42.519684 C 11.741487 42.519684 21.259842 33.001328 21.259842 21.259842 C 21.259842 21.259842 21.259842 21.259842 21.259842 21.259842 C 21.259842 9.518355 11.741487 0 0 0 "/>
                    </g>
                    <g transform="translate(325.98425196850394 0)">
                        <path class="typst-shape" fill="none" stroke="#ffffff" stroke-width="17" stroke-linecap="square" stroke-linejoin="miter" stroke-miterlimit="4" d="M 28.346457 0 C 28.346457 0 0 0 0 0 "/>
                    </g>
                    <g transform="translate(325.98425196850394 0)">
                        <path class="typst-shape" fill="none" stroke="#ffffff" stroke-width="17" stroke-linecap="butt" stroke-linejoin="miter" stroke-miterlimit="4" d="M 0 0 C 0 0 0 28.346457 0 28.346457 "/>
                    </g>
                    <g transform="translate(325.98425196850394 56.69291338582677)">
                        <path class="typst-shape" fill="none" stroke="#ffffff" stroke-width="17" stroke-linecap="butt" stroke-linejoin="miter" stroke-miterlimit="4" d="M 0 0 C 0 0 0 36.850395 0 36.850395 "/>
                    </g>
                    <g transform="translate(0 42.51968503937008)">
                        <path class="typst-shape" fill="none" stroke="#ffffff" stroke-width="17" stroke-linecap="butt" stroke-linejoin="miter" stroke-miterlimit="4" d="M 82.20473 99.2126 C 82.20473 79.37008 73.70079 25.51181 0 0 "/>
                    </g>
                    <g transform="translate(25.511811023622045 42.51968503937008)">
                        <path class="typst-shape" fill="none" stroke="#000000" stroke-width="28" stroke-linecap="butt" stroke-linejoin="miter" stroke-miterlimit="4" d="M 73.70079 0 C 49.322834 0 0 48.188976 0 99.2126 "/>
                    </g>
                    <g transform="translate(25.511811023622045 42.51968503937008)">
                        <path class="typst-shape" fill="none" stroke="#ffffff" stroke-width="17" stroke-linecap="butt" stroke-linejoin="miter" stroke-miterlimit="4" d="M 73.70079 0 C 49.322834 0 0 48.188976 0 99.2126 "/>
                    </g>
                    <g transform="translate(25.511811023622045 141.73228346456693)">
                        <path class="typst-shape" fill="none" stroke="#ffffff" stroke-width="17" stroke-linecap="butt" stroke-linejoin="miter" stroke-miterlimit="4" d="M 0 0 C 0 15.655315 12.691141 28.346457 28.346457 28.346457 C 28.346457 28.346457 28.346457 28.346457 28.346457 28.346457 C 44.001774 28.346457 56.692913 15.655315 56.692913 0 "/>
                    </g>
                    <g transform="translate(99.21259842519684 0)">
                        <path class="typst-shape" fill="none" stroke="#ffffff" stroke-width="17" stroke-linecap="square" stroke-linejoin="miter" stroke-miterlimit="4" d="M 0 19.84252 C 0 19.84252 0 0 0 0 "/>
                    </g>
                    <g transform="translate(99.21259842519684 65.1968503937008)">
                        <path class="typst-shape" fill="none" stroke="#ffffff" stroke-width="17" stroke-linecap="square" stroke-linejoin="miter" stroke-miterlimit="4" d="M 0 0 C 0 0 0 19.84252 0 19.84252 C 0 19.84252 39.68504 19.84252 39.68504 19.84252 "/>
                    </g>
                    <g transform="translate(155.90551181102362 0)">
                        <path class="typst-shape" fill="none" stroke="#ffffff" stroke-width="17" stroke-linecap="butt" stroke-linejoin="miter" stroke-miterlimit="4" d="M 56.692913 28.346457 C 56.692913 12.691141 44.001774 0 28.346457 0 C 28.346457 0 28.346457 0 28.346457 0 C 12.691141 0 0 12.691141 0 28.346457 "/>
                    </g>
                    <g transform="translate(155.90551181102362 56.69291338582677)">
                        <path class="typst-shape" fill="none" stroke="#ffffff" stroke-width="17" stroke-linecap="butt" stroke-linejoin="miter" stroke-miterlimit="4" d="M 0 0 C 0 15.655315 12.691141 28.346457 28.346457 28.346457 C 28.346457 28.346457 28.346457 28.346457 28.346457 28.346457 C 44.001774 28.346457 56.692913 15.655315 56.692913 0 "/>
                    </g>
                    <g transform="translate(240.9448818897638 0)">
                        <path class="typst-shape" fill="none" stroke="#ffffff" stroke-width="17" stroke-linecap="butt" stroke-linejoin="miter" stroke-miterlimit="4" d="M 56.692913 28.346457 C 56.692913 12.691141 44.001774 0 28.346457 0 C 28.346457 0 28.346457 0 28.346457 0 C 12.691141 0 0 12.691141 0 28.346457 "/>
                    </g>
                    <g transform="translate(240.9448818897638 56.69291338582677)">
                        <path class="typst-shape" fill="none" stroke="#ffffff" stroke-width="17" stroke-linecap="butt" stroke-linejoin="miter" stroke-miterlimit="4" d="M 0 0 C 0 15.655315 12.691141 28.346457 28.346457 28.346457 C 28.346457 28.346457 28.346457 28.346457 28.346457 28.346457 C 44.001774 28.346457 56.692913 15.655315 56.692913 0 "/>
                    </g>
                </g>
            </g>
        </g>
    </g>
</svg>